<svg version="1.1" id="Ebene_1" xmlns="http://www.w3.org/2000/svg" xmlns:xlink="http://www.w3.org/1999/xlink" x="0px" y="0px" width="60px" height="60px" viewBox="186.387 50.159 60 60" enable-background="new 186.387 50.159 60 60" xml:space="preserve">
<g>
	<path d="M208.791,80.401c0.163,6.159-4.974,10.684-10.246,10.641c-5.226-0.045-10.403-4.131-10.376-10.586
		c0.025-5.953,4.542-10.488,10.469-10.445C204.719,70.047,208.849,75.042,208.791,80.401z M198.535,81.157h-5.027
		c-0.974,0-1.945,0-2.918,0c-0.653,0-0.812,0.283-0.671,0.929c0.516,2.356,1.595,4.324,3.638,5.723
		c5.093,3.488,11.729,0.982,13.408-4.99c0.412-1.47,0.261-1.655-1.298-1.664c-2.375-0.017-4.762-0.006-7.131-0.006V81.157z
		 M197.53,79.668v-0.084c0.43,0,0.858,0,1.286,0c2.419-0.029,4.84-0.049,7.256-0.096c1.092-0.023,1.202-0.194,0.947-1.263
		c-0.024-0.105-0.076-0.202-0.104-0.304c-1.238-4.196-5.296-6.695-9.713-6.112c-3.328,0.44-6.46,3.096-7.216,6.518
		c-0.234,1.066,0,1.345,1.121,1.343C193.249,79.668,195.394,79.668,197.53,79.668z"></path>
	<path d="M244.931,81.281c0.102,1.285-0.462,2.386-1.349,3.279c-1.443,1.439-3.781,1.315-5.226-0.173
		c-1.925-1.983-1.392-5.215,0.315-6.632c1.628-1.333,4.027-1.094,5.358,0.535c0.189,0.231,0.353,0.483,0.481,0.75
		C244.833,79.743,244.977,80.51,244.931,81.281z"></path>
</g>
</svg>
