<svg version="1.1" id="Ebene_1" xmlns="http://www.w3.org/2000/svg" xmlns:xlink="http://www.w3.org/1999/xlink" x="0px" y="0px" width="60px" height="60px" viewBox="113.73 132.393 60 60" enable-background="new 113.73 132.393 60 60" xml:space="preserve">
<g>
	<path d="M143.922,182.618c-7.698-0.274-13.846-6.296-13.808-14.271c0.042-8.963,7.135-14.081,13.97-14.054
		c7.283,0.037,13.883,5.219,13.993,13.757C158.188,176.587,152.13,182.362,143.922,182.618z M139.637,169.308
		c-2.036,0-4.07,0.022-6.105-0.01c-0.91-0.014-1.154,0.411-0.999,1.216c0.065,0.431,0.153,0.858,0.264,1.28
		c1.559,4.987,6.162,9.432,13.028,8.416c4.875-0.724,8.021-3.499,9.486-8.154c0.848-2.726,0.561-3.049-2.239-2.97
		C148.595,169.202,144.118,169.35,139.637,169.308L139.637,169.308z M144.158,167.064c3.345,0,6.688,0.024,10.035-0.01
		c1.468-0.017,1.595-0.225,1.35-1.71c-0.044-0.36-0.125-0.713-0.241-1.057c-2.608-6.819-10.7-10.104-17.421-6.008
		c-2.646,1.618-4.446,3.907-5.163,6.946c-0.372,1.573-0.161,1.815,1.417,1.83C137.471,167.092,140.815,167.064,144.158,167.064z"></path>
	<path d="M159.97,151.662c0,1.061-0.604,1.437-1.843,1.018c-2.537-0.858-5.052-1.78-7.575-2.682
		c-2.387-0.853-4.775-1.704-7.156-2.574c-0.697-0.256-1.243,0.011-1.846,0.324c-4.295,2.265-8.6,4.521-12.912,6.765
		c-1.146,0.599-1.458,0.434-1.837-0.731c-0.232-0.719,0.214-0.87,0.678-1.109c2.064-1.07,4.118-2.159,6.178-3.237
		c2.508-1.307,5.049-2.56,7.52-3.936c0.928-0.518,1.734-0.541,2.69-0.199c4.981,1.788,9.969,3.552,14.963,5.298
		C159.384,150.8,159.966,150.911,159.97,151.662z"></path>
</g>
</svg>
