<svg version="1.1" id="Ebene_1" xmlns="http://www.w3.org/2000/svg" xmlns:xlink="http://www.w3.org/1999/xlink" x="0px" y="0px"
	 width="39.5px" height="14.86px" viewBox="577.657 385.27 39.5 14.86" enable-background="new 577.657 385.27 39.5 14.86"
	 xml:space="preserve">
<title>Topo-Icons</title>
<path d="M616.516,400.116c-0.459,0.088-0.632-0.239-0.857-0.452c-1.614-1.529-3.225-3.063-4.831-4.604
	c-0.236-0.225-0.467-0.455-0.705-0.676c-0.437-0.403-0.833-0.419-1.229,0.087c-1.35,1.715-2.999,3.142-4.506,4.709
	c-0.227,0.234-0.466,0.456-0.693,0.689c-0.338,0.347-0.631,0.312-0.957-0.041c-0.325-0.352-0.583-0.657-0.136-1.097
	c0.698-0.687,1.394-1.377,2.068-2.086c1.047-1.099,2.049-2.239,3.12-3.314c0.478-0.479,0.365-0.761-0.064-1.181
	c-1.636-1.595-3.238-3.221-4.853-4.838c-0.265-0.266-0.61-0.499-0.487-0.956c0.166-0.617,0.882-0.859,1.345-0.413
	c1.211,1.158,2.392,2.347,3.584,3.529c0.077,0.076,0.141,0.165,0.215,0.244c1.824,1.93,1.824,1.931,3.616,0.05
	c1.311-1.372,2.619-2.747,3.926-4.121c0.336-0.353,0.667-0.556,1.108-0.153c0.408,0.374,0.617,0.696,0.104,1.198
	c-0.89,0.876-1.719,1.813-2.566,2.735c-0.849,0.922-1.658,1.862-2.532,2.747c-0.438,0.441-0.293,0.719,0.077,1.07
	c1.571,1.492,3.138,2.991,4.695,4.499c0.361,0.33,0.703,0.68,1.026,1.049C617.376,399.252,617.05,400.045,616.516,400.116z"/>
</svg>
