<svg version="1.1" id="Ebene_1" xmlns="http://www.w3.org/2000/svg" xmlns:xlink="http://www.w3.org/1999/xlink" x="0px" y="0px" width="60px" height="60px" viewBox="668.153 249.287 60 60" enable-background="new 668.153 249.287 60 60" xml:space="preserve">
<g>
	<path d="M695.34,279.326c0,6.227-0.009,12.45,0.014,18.676c0,0.763-0.201,1.331-0.761,1.869c-0.785,0.757-1.467,1.619-2.199,2.432
		c-0.188,0.209-0.395,0.405-0.594,0.605c-0.282,0.282-0.504,0.1-0.726-0.098s-0.226-0.4-0.013-0.63
		c0.857-0.935,1.666-1.915,2.57-2.803c0.497-0.455,0.77-1.104,0.744-1.777c-0.016-2.006-0.009-4.013-0.017-6.021
		c-0.016-3.87-0.041-7.738-0.053-11.611c-0.009-2.782,0-5.563,0-8.344c0-3.527-0.039-7.055-0.012-10.582
		c0.03-0.628-0.227-1.238-0.699-1.655c-0.838-0.809-1.616-1.677-2.414-2.525c-0.378-0.404-0.351-0.62,0.063-0.937
		c0.168-0.129,0.309-0.146,0.464,0c0.051,0.046,0.1,0.096,0.145,0.146c0.912,1.028,1.955,1.927,2.864,2.964
		c0.429,0.465,0.653,1.081,0.627,1.713C695.332,266.946,695.34,273.136,695.34,279.326z"></path>
	<path d="M702.349,294.988v-22.18c0-4.055,0.011-8.108-0.013-12.161c-0.026-0.6,0.207-1.184,0.643-1.596
		c0.97-0.977,1.895-1.996,2.825-3.01c0.213-0.231,0.394-0.417,0.704-0.173s0.398,0.484,0.113,0.8
		c-0.163,0.185-0.316,0.376-0.483,0.558c-0.692,0.751-1.435,1.459-2.124,2.216c-0.479,0.521-0.612,1.033-0.611,1.697
		c0.011,12.134,0.011,24.269,0,36.401c0,0.726,0.185,1.248,0.713,1.759c0.811,0.779,1.524,1.66,2.278,2.496
		c0.095,0.106,0.196,0.205,0.29,0.311c0.252,0.291,0.109,0.539-0.126,0.727c-0.232,0.188-0.435,0.145-0.646-0.083
		c-1.05-1.143-2.117-2.271-3.169-3.413c-0.238-0.262-0.359-0.608-0.337-0.962c0.023-1.127,0.009-2.257,0.009-3.387H702.349
		L702.349,294.988z"></path>
</g>
</svg>
