<svg version="1.1" id="Ebene_1" xmlns="http://www.w3.org/2000/svg" xmlns:xlink="http://www.w3.org/1999/xlink" x="0px" y="0px" width="60px" height="60px" viewBox="53.466 215.014 60 60" enable-background="new 53.466 215.014 60 60" xml:space="preserve">
<g>
	<path d="M87.906,246.851c-0.544,1.195-1.608,1.251-2.673,1.339c-0.791,0.065-1.579,0.202-2.367,0.325
		c-0.452,0.068-0.769-0.047-1.095-0.417c-0.369-0.417-0.607-0.979-1.246-1.274c-0.179,0.31-0.146,0.643-0.146,0.958
		c0.006,4.159,0.018,8.32,0.032,12.482c0,1.867,0,3.733,0.006,5.6c0.014,0.46-0.155,0.906-0.471,1.241
		c-1.134,1.235-2.268,2.474-3.397,3.713c-0.163,0.182-0.292,0.385-0.541,0.14c-0.2-0.196-0.575-0.345-0.316-0.731
		c0.192-0.283,0.405-0.55,0.637-0.8c0.78-0.842,1.562-1.677,2.347-2.505c0.43-0.434,0.662-1.021,0.641-1.632
		c-0.018-13.229-0.012-26.459,0.018-39.688c0-1.169-0.773-1.678-1.349-2.372c-0.678-0.819-1.486-1.531-2.236-2.292
		c-0.164-0.164-0.363-0.365-0.082-0.557c0.247-0.169,0.476-0.609,0.858-0.228c0.789,0.782,1.559,1.58,2.331,2.37
		c0.104,0.108,0.157,0.274,0.271,0.367c1.545,1.227,1.233,1.402,1.243,3.325c0.019,3.977,0,7.954,0.01,11.929
		c0,0.414-0.097,0.843,0.126,1.236c0.459,0,0.775-0.292,1.125-0.516c0.395-0.255,0.821-0.409,1.297-0.327
		c1.347,0.232,2.688,0.506,4.042,0.697c0.497,0.068,0.722,0.345,0.952,0.819c0.241-0.447,0.163-0.856,0.164-1.242
		c0-4.435,0.021-8.871-0.011-13.301c-0.008-1.024,0.254-1.777,1.005-2.524c0.916-0.91,1.916-1.754,2.677-2.82
		c0.26-0.365,0.552-0.316,0.855,0c0.253,0.259,0.325,0.43,0.014,0.731c-0.73,0.718-1.412,1.498-2.133,2.235
		c-1.316,1.351-1.41,1.365-1.316,3.176c0.135,2.407,0.065,4.813,0.069,7.218c0.018,10.476,0.018,20.953,0,31.425
		c0,0.897,0.206,1.588,0.891,2.22c0.923,0.849,1.734,1.818,2.594,2.738c0.191,0.206,0.373,0.409,0.027,0.649
		c-0.267,0.186-0.476,0.535-0.85,0.125c-1.182-1.295-2.385-2.57-3.564-3.868c-0.342-0.374-0.252-0.865-0.252-1.316
		c0-3.594,0-7.188,0-10.782c0-2.218,0-4.436,0-6.654C88.087,247.686,88.187,247.293,87.906,246.851z M82.485,247.035
		c0.341,0.503,0.853,0.21,1.254,0.204c1.722-0.021,3.244-0.371,3.97-2.277c0.201-0.532,0.212-0.892,0.041-1.366
		c-0.147-0.4-0.402-0.495-0.788-0.477c-0.449,0.022-0.46,0.325-0.448,0.635c0.021,0.482-0.181,0.709-0.669,0.675
		c-0.408-0.028-0.674,0.113-0.605,0.585c0.082,0.573-0.232,0.73-0.725,0.722c-0.229,0-0.455-0.02-0.683-0.031
		c0-0.115-0.011-0.229-0.008-0.343c0.019-0.769,0.016-0.784,0.827-0.955c0.399-0.086,0.631-0.268,0.584-0.688
		c-0.074-0.618,0.219-0.813,0.788-0.762c0.257,0.023,0.439-0.092,0.452-0.383c0.013-0.418-0.012-0.837,0.507-1.024
		c0.112-0.041,0.085-0.264,0.051-0.422c-0.163-0.774-0.83-1.232-1.626-0.914c-0.533,0.215-1.039,0.132-1.552,0.213
		c-0.031-0.694-0.541-0.784-1.044-0.73c-0.855,0.097-1.548,0.606-2.182,1.127c-0.501,0.411-0.147,1.074-0.231,1.618
		c-0.033,0.22,0.026,0.479,0.331,0.489c0.304,0.01,0.378-0.257,0.374-0.47c-0.01-0.627,0.267-0.876,0.888-0.815
		c0.409,0.043,0.533-0.219,0.489-0.571c-0.073-0.583,0.221-0.73,0.73-0.674c0.227,0.009,0.454,0.004,0.681-0.013
		c-0.02,0.374,0.126,0.787-0.102,1.113c-0.192,0.275-0.563,0.146-0.855,0.195c-0.323,0.05-0.428,0.253-0.45,0.554
		c-0.017,0.257,0.076,0.731-0.12,0.731c-0.985-0.013-1.159,0.657-1.316,1.377c-0.849,0.189-0.43,0.558-0.125,0.904
		C81.436,245.849,81.847,246.544,82.485,247.035L82.485,247.035z"></path>
	<path d="M83.875,245.661c-0.029,1.673,0.117,1.427-1.413,1.413C82.503,245.703,82.503,245.703,83.875,245.661z"></path>
</g>
</svg>
