<svg version="1.1" id="Ebene_1" xmlns="http://www.w3.org/2000/svg" xmlns:xlink="http://www.w3.org/1999/xlink" x="0px" y="0px" width="60px" height="60px" viewBox="237.901 67.701 60 60" enable-background="new 237.901 67.701 60 60" xml:space="preserve">
<g>
	<path d="M268.119,113.523c-5.775-0.033-11.294-1.196-16.414-3.932c-3.889-2.082-7.2-4.828-9.541-8.647
		c-1.325-2.159-2.094-4.513-2.555-6.974c-0.096-0.507-0.32-1.217,0.613-1.307c0.748-0.072,1.121,0.159,1.269,1.012
		c1.034,5.993,4.41,10.344,9.544,13.462c4.636,2.814,9.691,4.085,15.072,4.486c6.612,0.488,12.807-0.747,18.547-4.021
		c5.3-3.023,8.907-7.375,9.998-13.553c0.227-1.278,0.464-1.448,1.379-1.391c0.57,0.036,0.808,0.268,0.702,0.853
		c-0.759,4.173-2.331,7.959-5.304,11.061c-4.31,4.494-9.644,7.029-15.69,8.255C273.229,113.315,270.676,113.548,268.119,113.523z"></path>
	<path d="M254.454,96.991c-1.451,1.024-1.451,1.024-2.496-0.157c1.038-1.392,1.038-1.392-0.299-2.842
		c1-1.164,1.037-1.196,2.047-0.247c0.552,0.521,0.937,0.528,1.4-0.037c0.201-0.244,0.449-0.449,0.671-0.678
		c0.584-0.626,1.09-0.149,1.474,0.205c0.407,0.369,0.22,0.807-0.23,1.101c-0.054,0.036-0.104,0.077-0.149,0.122
		c-0.936,0.935-0.963,0.953-0.222,2.06c0.3,0.44,0.398,0.779-0.023,1.154c-0.422,0.376-0.849,0.585-1.312,0.053
		c-0.125-0.145-0.263-0.278-0.409-0.401C254.763,97.197,254.602,97.094,254.454,96.991z"></path>
	<path d="M273.805,102.215c1.012-1.001,1.046-1.046,1.978-0.317c0.706,0.556,1.302,0.524,1.823-0.125
		c0.809-1.009,1.37-0.542,1.936,0.221c-0.062,0.521-0.497,0.748-0.815,1.024c-0.675,0.599-0.758,1.116-0.021,1.723
		c0.432,0.354,0.706,0.803,0.108,1.266c-0.449,0.35-0.897,0.779-1.43,0.056c-0.545-0.748-1.082-0.701-1.695,0
		c-0.559,0.646-1.029,0.042-1.456-0.28c-0.428-0.321-0.261-0.713,0.077-0.96c1.01-0.734,0.636-1.346-0.109-1.967
		C274.001,102.698,273.797,102.526,273.805,102.215z"></path>
	<path d="M258.993,105.896c0.232-0.345,0.309-0.539,0.449-0.654c0.689-0.555,0.8-1.066,0.041-1.687
		c-0.422-0.346-0.966-0.786-0.277-1.399c0.557-0.499,1.102-0.616,1.609,0.067c0.578,0.776,1.104,0.536,1.76,0.032
		c1.018-0.782,1.046-0.736,2.041,0.372l-1.47,1.658c0.087,0.496,0.438,0.704,0.692,0.975c0.335,0.358,0.618,0.766,0.149,1.142
		c-0.406,0.327-0.909,0.854-1.473,0.188c-0.519-0.615-0.951-0.92-1.681-0.149C260.079,107.223,259.649,106.224,258.993,105.896z"></path>
	<path d="M265.599,93.965c0.599-0.911,1.216-1.356,1.945-0.598c0.663,0.687,1.153,0.598,1.738-0.017
		c0.173-0.181,0.421-0.287,0.618-0.448c0.598-0.48,0.963,0.07,1.305,0.351c0.424,0.353,0.012,0.663-0.23,0.938
		c-0.119,0.149-0.252,0.288-0.396,0.414c-0.672,0.534-0.801,1.089-0.142,1.744c0.362,0.361,0.769,0.776,0.162,1.259
		c-0.464,0.369-0.96,0.677-1.449,0c-0.448-0.628-0.946-0.814-1.496-0.095c-0.396,0.52-0.76,0.188-1.139-0.046
		c-0.378-0.233-0.531-0.503-0.413-0.944c0.132-0.498,1.107-0.676,0.565-1.405C266.375,94.717,265.992,94.381,265.599,93.965z"></path>
	<path d="M282.622,97.873c-0.761-0.495-1.576-0.876-0.61-1.866c0.616-0.636-0.07-1.007-0.423-1.416
		c-0.284-0.33-0.747-0.649-0.208-1.093c0.419-0.344,0.917-0.924,1.461-0.26c0.786,0.962,1.427,0.822,2.151-0.05
		c0.393-0.471,0.857-0.716,1.479-0.195c0.485,0.408,0.704,0.725,0.148,1.196c-0.129,0.142-0.271,0.273-0.422,0.392
		c-0.928,0.553-0.843,1.179-0.107,1.795c0.368,0.31,0.769,0.557,0.248,1.034c-0.412,0.382-0.919,0.992-1.442,0.367
		C284.021,96.753,283.319,97.083,282.622,97.873z"></path>
</g>
</svg>
