<svg version="1.1" id="Ebene_1" xmlns="http://www.w3.org/2000/svg" xmlns:xlink="http://www.w3.org/1999/xlink" x="0px" y="0px" width="60px" height="60px" viewBox="48.426 199.315 60 60" enable-background="new 48.426 199.315 60 60" xml:space="preserve">
<path d="M80.105,213.449l7.956-7.542c0.893,0.765,0.919,0.791,0.177,1.497c-2.46,2.346-4.956,4.64-7.359,7.04
	c-0.522,0.467-0.808,1.145-0.776,1.844c0.04,3.573,0.015,7.149,0.019,10.727c0,1.571-0.066,1.317,1.296,1.425
	c1.021,0.08,2.057,0.097,3.043,0.502c1.968,0.816,2.614,2.078,2.055,4.143c-0.487,1.795-1.509,3.306-2.567,4.79
	c-0.998,1.423-2.082,2.781-3.248,4.07c-0.442,0.48-0.597,1.03-0.592,1.698c0.026,3.864,0.014,7.729,0.013,11.594
	c0,0.291-0.015,0.581,0,0.872c0.017,0.429-0.213,0.595-0.603,0.613c-0.391,0.019-0.641-0.121-0.639-0.558c0-0.335,0-0.671,0-1.006
	c0-3.575,0-7.143,0-10.7c-0.28-0.13-0.436,0.024-0.562,0.167c-1.765,2.044-3.766,3.856-5.654,5.779
	c-0.546,0.559-0.959,1.245-1.648,1.677c-0.232,0.145-0.421,0.487-0.707,0.138c-0.263-0.318-0.531-0.656-0.085-1.072
	c0.633-0.591,1.249-1.203,1.854-1.826c2.049-2.112,4.189-4.129,6.156-6.327c0.434-0.448,0.671-1.052,0.659-1.677
	c-0.032-3.53-0.01-7.063-0.017-10.598c0-1.161-0.019-1.173-1.192-1.184c-1.322-0.017-2.651,0.077-3.957-0.241
	c-1.213-0.295-2.271-0.75-2.683-2.093c-0.137-0.476-0.148-0.979-0.033-1.46c0.3-1.508,1.127-2.76,1.961-3.983
	c1.398-2.058,3.003-3.968,4.791-5.699c0.838-0.816,1.173-1.675,1.147-2.85c-0.074-3.487-0.031-6.981-0.019-10.47
	c0-0.368-0.188-0.879,0.502-0.92c0.52-0.034,0.755,0.138,0.748,0.695c-0.024,1.869-0.018,3.74-0.021,5.608
	C80.104,209.814,80.105,211.508,80.105,213.449z M78.873,216.969c-0.252-0.014-0.492,0.099-0.643,0.3
	c-1.633,1.704-3.126,3.533-4.466,5.476c-0.614,0.832-1.106,1.748-1.463,2.718c-0.538,1.568,0.324,2.336,1.56,2.604
	c1.361,0.295,2.72,0.168,4.08,0.252c0.896,0.056,0.925,0.051,0.927-0.838c0.013-3.487,0.006-6.974,0.006-10.511V216.969
	L78.873,216.969z M80.121,240.408c0.313-0.076,0.585-0.269,0.76-0.538c0.925-1.209,1.867-2.409,2.741-3.656
	c0.665-0.95,1.201-1.984,1.597-3.076c0.685-1.894,0.127-2.647-1.467-3.102c-0.911-0.271-1.859-0.392-2.809-0.356
	c-0.788,0.039-0.813,0.039-0.816,0.875c-0.014,2.236,0,4.474,0,6.705L80.121,240.408z"></path>
</svg>
