<svg version="1.1" id="Ebene_1" xmlns="http://www.w3.org/2000/svg" xmlns:xlink="http://www.w3.org/1999/xlink" x="0px" y="0px" width="60px" height="60px" viewBox="53.781 209.369 60 60" enable-background="new 53.781 209.369 60 60" xml:space="preserve">
<path d="M83.857,220.923c1.569-1.567,3.154-3.135,4.724-4.72c1.11-1.121,2.215-2.251,3.295-3.402
	c0.272-0.289,0.548-0.525,0.935-0.396c0.42,0.139,0.426,0.552,0.441,0.92c0.014,0.32,0,0.649,0,0.975c0,11.346,0,22.693,0,34.041
	c0,2.722-0.013,5.443,0.008,8.163c0,0.601-0.121,1.07-0.565,1.525c-1.105,1.131-2.131,2.336-3.215,3.488
	c-1.249,1.329-2.53,2.628-3.788,3.947c-0.42,0.44-0.801,0.919-1.224,1.353c-0.369,0.378-0.742,0.394-1.147-0.021
	c-2.867-2.935-5.911-5.695-8.632-8.772c-0.403-0.46-0.61-1.059-0.575-1.669c0.018-1.342,0-2.686,0-4.026v-32.57
	c0-2.03,0-4.06,0-6.083c0-0.266-0.082-0.551,0.174-0.786c0.449-0.415,0.775-0.427,1.263,0.051c2.348,2.302,4.696,4.607,7.043,6.915
	C82.982,220.213,83.295,220.643,83.857,220.923z M83.02,264.661c0.211-0.191,0.13-0.445,0.13-0.671c0-2.782,0.1-5.562,0.024-8.345
	c-0.082-3.065-0.019-6.138-0.019-9.208c0-7.769-0.01-15.536,0.015-23.303c0-0.749-0.194-1.281-0.743-1.815
	c-2.163-2.089-4.275-4.237-6.414-6.345c-0.181-0.18-0.32-0.512-0.743-0.32c-0.149,0.64-0.072,1.335-0.064,2.017
	c0.015,1.172,0.063,2.346,0.08,3.521c0.046,3.219-0.085,6.439-0.08,9.658c0,4.228,0.088,8.455,0.112,12.682
	c0.024,4.498,0.03,8.997,0.017,13.497c-0.024,0.602,0.198,1.188,0.617,1.622c2.097,2.322,4.392,4.447,6.574,6.683
	c0.138,0.138,0.261,0.317,0.495,0.329V264.661L83.02,264.661z M84.373,264.747c0.32,0.074,0.399,0,0.48-0.095
	c2.197-2.325,4.379-4.668,6.603-6.967c0.527-0.545,0.707-1.104,0.7-1.839c-0.04-4.217-0.04-8.434-0.053-12.646
	c-0.014-5.523-0.028-11.045-0.045-16.569c-0.01-3.634-0.028-7.267-0.055-10.9c0-0.367,0.107-0.777-0.226-1.196
	c-2.158,2.387-4.378,4.567-6.603,6.744c-0.607,0.594-0.819,1.191-0.818,2.023c0.024,13.409,0.029,26.819,0.016,40.228V264.747
	L84.373,264.747z"></path>
</svg>
