<svg version="1.1" id="Ebene_1" xmlns="http://www.w3.org/2000/svg" xmlns:xlink="http://www.w3.org/1999/xlink" x="0px" y="0px" width="60px" height="60px" viewBox="69.421 211.699 60 60" enable-background="new 69.421 211.699 60 60" xml:space="preserve">
<path d="M113.326,212.364c-1.861,1.953-3.542,4.058-4.866,6.43c-1.692,3.021-3.077,6.203-4.135,9.5
	c-1.858,5.822-3.006,11.827-4.521,17.745c-1.39,5.443-3.012,10.814-5.256,15.989c-1.325,3.099-2.833,6.117-4.518,9.036
	c-0.197,0.336-0.297,0.802-0.869,0.584c-0.382-0.142-0.666-0.309-0.435-0.776c0.198-0.403,0.381-0.816,0.605-1.206
	c3.387-5.909,5.887-12.191,7.786-18.722c1.564-5.388,2.718-10.872,4.079-16.307c1.235-4.928,2.631-9.81,5.017-14.343
	c1.556-2.955,3.302-5.776,5.695-8.138C112.548,211.515,112.561,211.515,113.326,212.364z"></path>
</svg>
