<svg version="1.1" id="Ebene_1" xmlns="http://www.w3.org/2000/svg" xmlns:xlink="http://www.w3.org/1999/xlink" x="0px" y="0px" width="60px" height="60px" viewBox="341.61 125.071 60 60" enable-background="new 341.61 125.071 60 60" xml:space="preserve">
<path d="M401.605,145.194c-1.054,0.409-2.101,0.832-3.159,1.225c-0.682,0.254-1.063,0.615-1.232,1.421
	c-0.383,1.898-1.893,2.884-3.785,2.725c-0.646-0.041-1.25-0.335-1.68-0.819c-0.375-0.426-0.742-0.377-1.181-0.194
	c-2.219,0.923-4.433,1.857-6.665,2.748c-0.52,0.208-0.74,0.518-0.89,1.043c-0.698,2.479-3.149,3.377-5.182,1.842
	c-0.522-0.395-0.909-0.459-1.429-0.244c-2.221,0.92-4.434,1.855-6.659,2.762c-0.512,0.209-0.734,0.568-0.881,1.068
	c-0.798,2.682-2.996,3.549-5.331,2.059c-0.532-0.336-0.983-0.379-1.509-0.166c-2.225,0.904-4.437,1.828-6.667,2.717
	c-0.52,0.209-0.724,0.508-0.784,1.086c-0.298,2.641-3.348,3.865-5.318,2.096c-0.448-0.4-0.793-0.35-1.312-0.172
	c-1.897,0.656-3.66,1.662-5.623,2.141c-0.305-1.184-0.317-1.355,0.956-1.848s2.554-1.008,3.826-1.521
	c0.616-0.25,0.991-0.572,1.081-1.371c0.241-2.15,2.958-4.082,5.355-2.074c0.634,0.531,1.082,0.447,1.68,0.195
	c2.128-0.877,4.256-1.764,6.396-2.617c0.541-0.215,0.672-0.559,0.74-1.107c0.197-1.527,0.994-2.621,2.537-3.09
	c1.091-0.336,2.109-0.141,2.861,0.652c0.672,0.713,1.224,0.711,2.06,0.338c1.876-0.852,3.801-1.596,5.712-2.361
	c0.694-0.279,1.085-0.648,1.143-1.491c0.102-1.493,1.095-2.364,2.464-2.791c1.263-0.395,2.429,0.015,3.197,0.975
	c0.573,0.716,1.061,0.54,1.641,0.303c1.91-0.784,3.791-1.635,5.719-2.368c0.702-0.268,0.936-0.624,1.051-1.354
	c0.316-2.016,1.762-3.023,3.793-2.859c0.743,0.059,1.337,0.435,1.818,0.883c0.462,0.428,0.791,0.382,1.296,0.186
	c1.316-0.509,2.562-1.215,3.966-1.49L401.605,145.194z M365.651,160.077c0.955,0.053,1.911-1.152,1.874-1.93
	c-0.037-0.779-1.019-1.656-1.819-1.658c-0.99,0-1.94,0.924-1.895,1.85C363.874,159.311,364.677,160.069,365.651,160.077z
	 M353.112,164.094c0-1.023-0.612-1.68-1.587-1.701s-1.87,0.748-1.904,1.639c-0.042,1.008,0.819,1.916,1.8,1.896
	C352.251,165.913,353.283,165.012,353.112,164.094z M393.935,149.086c0.977,0,1.844-0.784,1.88-1.709
	c0.04-0.957-0.745-1.706-1.792-1.716c-1.092-0.012-1.868,0.672-1.865,1.653c-0.014,0.962,0.756,1.754,1.719,1.768
	c0.02,0,0.039,0,0.059,0V149.086L393.935,149.086z M380.062,150.836c-0.93-0.028-1.878,0.784-1.938,1.661
	c-0.065,0.97,0.728,1.878,1.657,1.896c0.84,0.016,1.928-0.889,1.994-1.656C381.845,151.928,380.884,150.863,380.062,150.836z"></path>
</svg>
