<svg version="1.1" id="Ebene_1" xmlns="http://www.w3.org/2000/svg" xmlns:xlink="http://www.w3.org/1999/xlink" x="0px" y="0px" width="60px" height="60px" viewBox="174.854 124.776 60 60" enable-background="new 174.854 124.776 60 60" xml:space="preserve">
<path d="M223.176,166.615c1.49-0.895,3.11-1.525,4.767-2.09c0.941-0.319,1.253,0.09,1.488,0.872c0.126,0.423,0.051,0.661-0.365,0.79
	c-0.469,0.145-0.945,0.271-1.405,0.438c-2.841,1.029-5.228,2.625-6.852,5.438c1.314,0.317,2.5,0.142,3.669,0.168
	c0.665,0.015,1.082,0.194,1.091,0.938c0.01,0.777-0.468,0.926-1.103,0.923c-3.684-0.014-7.368,0.403-11.054,0
	c-0.623-0.068-1.089-0.17-1.092-0.945c-0.004-0.775,0.469-0.913,1.1-0.91c1.118,0.008,2.232,0,3.531,0
	c-0.467-1.923-1.537-3.305-2.539-4.658c-1.459-1.979-3.216-3.725-5.328-5.037c-0.187-0.097-0.364-0.21-0.53-0.338
	c-0.445-0.409-0.739-0.81-0.213-1.42c0.473-0.552,0.88-0.544,1.431-0.153c2.651,1.881,4.997,4.073,6.922,6.703
	c0.697-0.092,0.618-0.649,0.698-1.104c0.405-2.355,1.186-4.611,1.861-6.89c0.162-0.53,0.239-1.355,1.216-1.035
	c0.905,0.299,0.881,0.938,0.659,1.678c-0.52,1.742-1.032,3.486-1.541,5.231c-0.191,0.661-0.499,1.319-0.208,2.06
	c0.677,0.111,0.802-0.433,1.045-0.807c1.108-1.704,2.2-3.415,3.327-5.107c0.34-0.508,0.452-1.407,1.523-0.762
	c1.148,0.697,0.398,1.297,0.043,1.893c-0.648,1.083-1.378,2.115-2.052,3.182C223.11,165.941,222.732,166.202,223.176,166.615z"></path>
<path d="M191.104,165.56c1.816-2.086,2.892-4.301,4.326-6.264c0.247-0.338,0.44-0.716,0.677-1.063
	c0.353-0.521,0.749-0.466,1.26-0.169c0.564,0.324,0.639,0.711,0.339,1.208c-0.589,0.957-1.218,1.89-1.809,2.845
	c-0.354,0.573-0.951,1.027-0.933,2.007c1.25-0.556,2.406-1.101,3.589-1.577c0.582-0.235,1.22-0.339,1.827-0.517
	c0.716-0.217,1.047,0.169,1.242,0.767c0.194,0.598-0.125,0.884-0.677,1.063c-1.334,0.438-2.68,0.837-3.91,1.55
	c-1.72,0.994-3.187,2.223-4.241,4.231h3.922c0.49,0,0.781,0.192,0.792,0.738c0.011,0.545-0.083,0.953-0.757,1.006
	c-1.255,0.099-2.589,0.27-3.755,0.152c-2.531-0.253-5.044,0.11-7.554-0.138c-0.607-0.059-1.089-0.067-1.095-0.89
	c-0.006-0.823,0.473-0.884,1.087-0.877c1.052,0.01,2.104,0,3.245,0c0.109-0.599-0.188-0.957-0.421-1.354
	c-1.863-3.186-4.012-6.104-7.218-8.086c-0.237-0.147-0.434-0.36-0.663-0.521c-0.508-0.354-0.545-0.806-0.221-1.271
	c0.325-0.466,0.7-0.643,1.249-0.291c1.304,0.819,2.535,1.751,3.679,2.782c1.403,1.283,2.394,2.915,3.839,4.447
	c0.357-3.025,1.452-5.67,2.213-8.411c0.118-0.426,0.177-0.822,0.655-0.97c0.846-0.259,1.545,0.356,1.305,1.186
	c-0.545,1.887-1.118,3.767-1.72,5.639C191.107,163.605,191.096,164.415,191.104,165.56z"></path>
<path d="M214.034,144.577c1.523-0.543,2.948-1.07,4.375-1.604c0.396-0.149,0.809-0.244,1.229-0.282
	c0.584-0.052,0.887,0.293,1.016,0.847c0.117,0.508-0.071,0.796-0.543,0.962c-0.792,0.28-1.576,0.593-2.37,0.867
	c-2.58,0.887-4.337,2.722-6.094,5.247c1.328,0,2.332-0.009,3.334,0c1.384,0.018,1.384,0.024,1.641,1.661
	c-3.191,0.321-6.373,0.429-9.57,0.128c-0.688-0.065-1.399,0.104-2.097,0.079c-0.625-0.026-1.251-0.102-1.228-1.035
	c0.023-0.847,0.554-0.833,1.132-0.833h3.314c-1.682-3.111-3.232-5.871-5.791-7.915c-0.875-0.697-1.813-1.319-2.744-1.941
	c-0.59-0.396-0.637-0.776-0.266-1.398c0.428-0.719,0.847-0.538,1.375-0.21c2.749,1.723,5.128,3.974,7.003,6.623
	c0.608-0.188,0.633-0.678,0.687-1.15c0.277-2.391,1.231-4.594,1.915-6.873c0.097-0.32,0.223-0.677,0.58-0.837
	c0.635-0.29,1.474,0.354,1.309,1.08c-0.218,0.966-0.571,1.883-0.868,2.828c-0.54,1.73-1.067,3.463-1.215,5.313
	c0.82-0.045,0.957-0.676,1.251-1.099c1.078-1.56,2.072-3.18,3.196-4.705c0.448-0.609,0.524-2.02,1.887-1.298
	c0.847,0.446,0.789,0.643-0.39,2.417C215.413,142.483,214.725,143.527,214.034,144.577z"></path>
</svg>
