<svg version="1.1" id="Ebene_1" xmlns="http://www.w3.org/2000/svg" xmlns:xlink="http://www.w3.org/1999/xlink" x="0px" y="0px" width="60px" height="60px" viewBox="51.912 203.604 60 60" enable-background="new 51.912 203.604 60 60" xml:space="preserve">
<path d="M86.543,209.527c0-0.466,0-0.933,0-1.401c0-0.322,0.097-0.508,0.468-0.514c0.371-0.004,0.647,0.095,0.684,0.477
	c0.061,0.661,0.05,1.329,0.103,1.992c0.166,2.098,0.342,4.195,0.525,6.292c0.121,1.401,0.254,2.802,0.372,4.203
	c0.22,2.602,0.428,5.205,0.648,7.805c0.162,1.901,0.328,3.804,0.5,5.705c0.156,1.783,0.386,3.562,0.481,5.349
	c0.096,1.754,0.262,3.498,0.415,5.247c0.202,2.335,0.379,4.67,0.576,6.997c0.197,2.37,0.39,4.737,0.623,7.104
	c0.05,0.516-0.214,0.554-0.592,0.638c-0.468,0.107-0.538-0.127-0.568-0.486c-0.139-1.594-0.288-3.185-0.43-4.776
	c-0.24-2.717-0.484-5.432-0.712-8.148c-0.169-2.025-0.304-4.049-0.467-6.072c-0.204-2.526-0.427-5.051-0.634-7.578
	c-0.182-2.214-0.439-4.422-0.556-6.645c-0.104-1.979-0.35-3.952-0.521-5.929c-0.22-2.563-0.411-5.129-0.651-7.692
	C86.721,211.233,86.542,210.39,86.543,209.527z"></path>
<path d="M79.009,209.237c-0.312,2.201-0.344,4.388-0.576,6.56c-0.197,1.856-0.294,3.736-0.434,5.604
	c-0.196,2.646-0.383,5.293-0.602,7.939c-0.377,4.504-0.786,9.005-1.159,13.509c-0.22,2.647-0.382,5.295-0.595,7.93
	c-0.156,1.982-0.349,3.964-0.554,5.943c-0.082,0.77,0.017,1.547-0.205,2.322c-0.136,0.467-0.351,0.534-0.737,0.514
	c-0.349-0.018-0.447-0.163-0.415-0.527c0.157-1.712,0.274-3.414,0.416-5.121c0.117-1.401,0.279-2.793,0.362-4.191
	c0.092-1.519,0.312-3.023,0.358-4.547c0.049-1.401,0.247-2.793,0.358-4.19c0.274-3.426,0.524-6.85,0.807-10.274
	c0.176-2.18,0.399-4.343,0.587-6.517c0.119-1.36,0.165-2.731,0.32-4.086c0.19-1.667,0.181-3.344,0.411-5.008
	c0.177-1.354,0.281-2.718,0.311-4.083c0.019-0.631,0.23-1.234,0.178-1.868c-0.047-0.537,0.229-0.667,0.708-0.638
	C79.092,208.547,78.991,208.937,79.009,209.237z"></path>
</svg>
