<svg version="1.1" id="Ebene_1" xmlns="http://www.w3.org/2000/svg" xmlns:xlink="http://www.w3.org/1999/xlink" x="0px" y="0px" width="60px" height="60px" viewBox="148.51 117.317 60 60" enable-background="new 148.51 117.317 60 60" xml:space="preserve">
<g>
	<path d="M193.149,135.563c-2.657,2.412-5.225,4.699-7.749,7.035c-3.278,3.028-6.538,6.077-9.778,9.146
		c-1.328,1.254-1.286,1.268-0.461,2.841c1.07,2.032,1.85,4.114,1.629,6.509c-0.336,3.646-4.102,6.112-7.698,5.251
		c-5.017-1.203-8.167-4.381-9.798-9.18c-0.542-1.653-0.576-3.43-0.099-5.101c0.869-3.218,4.393-4.911,7.975-3.944
		c1.681,0.455,3.244,1.16,4.521,2.399c0.671,0.651,1.26,0.655,1.999-0.053c2.945-2.814,5.951-5.561,8.932-8.341
		c3.096-2.896,6.168-5.802,9.28-8.671c1.158-1.07,1.424-1.038,2.51,0.023c1.729,1.688,3.424,3.407,4.985,5.262
		c0.483,0.57,0.748,0.997,0.074,1.549c-0.617,0.506-1.216,0.687-1.827-0.034C196.284,138.643,194.874,137.066,193.149,135.563z
		 M174.526,159.38c-0.595-3.032-2.456-5.974-5.741-7.912c-1.211-0.714-2.555-1.206-4.021-1.146c-1.646,0.068-3.07,1.02-3.331,2.46
		c-0.236,1.303-0.352,2.681,0.161,3.945c1.507,3.662,3.984,6.317,7.958,7.306C172.427,164.75,174.512,163.091,174.526,159.38z"></path>
	<path d="M193.003,144.798c-0.161-0.102-0.482-0.208-0.674-0.42c-0.947-1.02-1.85-2.078-2.794-3.1
		c-0.563-0.606-0.114-0.982,0.275-1.345c0.389-0.361,0.738-0.821,1.362-0.274c1.172,1.029,2.08,2.288,3.056,3.48
		C194.632,143.617,193.853,144.721,193.003,144.798z"></path>
</g>
</svg>
