<svg version="1.1" id="Ebene_1" xmlns="http://www.w3.org/2000/svg" xmlns:xlink="http://www.w3.org/1999/xlink" x="0px" y="0px" width="60px" height="60px" viewBox="159.117 30.815 60 60" enable-background="new 159.117 30.815 60 60" xml:space="preserve">
<g>
	<path d="M185.214,68.539c7.782,0,15.561-0.016,23.341,0.026c0.802,0,2.099-0.563,2.201,0.949c0.119,1.567-1.114,1.42-2.141,1.42
		c-15.64,0-31.281-0.004-46.925-0.013c-0.838,0-2.052,0.418-2.063-1.142c-0.013-1.762,1.346-1.215,2.233-1.219
		C169.653,68.513,177.433,68.539,185.214,68.539z"></path>
	<path d="M193.947,51.915c7.691,0,15.384-0.018,23.075,0.026c0.781,0,2.04-0.573,2.093,1.043s-1.208,1.133-2.006,1.136
		c-14.04,0.033-28.077,0.02-42.114,0.051c-1.581,0-3.164,0.451-4.743,0.091c-0.799-0.184-2.072,0.158-1.881-1.409
		c0.168-1.388,1.257-0.91,1.982-0.914c5.98-0.042,11.963-0.024,17.946-0.024H193.947z"></path>
</g>
</svg>
