<svg version="1.1" id="Ebene_1" xmlns="http://www.w3.org/2000/svg" xmlns:xlink="http://www.w3.org/1999/xlink" x="0px" y="0px" width="60px" height="60px" viewBox="203.4 108.32 60 60" enable-background="new 203.4 108.32 60 60" xml:space="preserve">
<path d="M229.189,156.045c-2.308,0.335-4.629-0.082-6.939,0.144c-0.899,0.089-1.463-0.234-1.447-1.256
	c0.009-0.642,0.251-1.001,0.926-1.002c1.289,0,2.58,0.025,3.866-0.021c2.105-0.075,2.33-0.318,2.341-2.367
	c0.013-1.972,0.025-3.944,0-5.915c-0.021-1.291-0.191-1.428-1.466-1.329c-1.882,0.159-3.77,0.285-5.638,0.542
	c-2.927,0.402-5.629-0.675-8.425-1.145c-0.226-0.044-0.427-0.168-0.566-0.351c-1.286-1.864-2.826-3.552-3.898-5.563
	c-0.101-0.204-0.154-0.429-0.159-0.657c-0.042-1.587,2.916-4.822,4.495-4.737c2.477,0.137,4.972-0.081,7.439,0.437
	c1.266,0.288,2.593,0.12,3.748-0.476c2.272-1.193,4.761-1.958,6.872-3.472c1.295-0.932,2.735-1.303,4.284-1.047
	c1.487,0.242,3.005-0.041,4.494,0.445c0.952,0.317,1.974,0.103,2.449-1.057c0.317-0.771,0.968-0.993,1.745-1.25
	c4.284-1.429,8.655-1.25,13.023-0.783c1.83,0.195,2.918,1.723,4.091,2.98c0.425,0.457,0.293,0.93-0.012,1.444
	c-1.454,2.453-3.099,4.523-6.138,5.286c-1.938,0.484-3.715,1.586-5.334,2.893c-2.01,1.601-4.31,2.795-6.773,3.52
	c-3.468,1.049-6.866,2.292-10.529,2.459c-1.028,0.048-1.455,0.478-1.428,1.556c0.065,2.349,0.041,4.7,0.016,7.052
	c-0.01,0.868,0.347,1.228,1.208,1.213c1.587-0.021,3.186,0.021,4.777,0c0.893-0.01,1.193,0.419,1.172,1.263
	c-0.021,0.793-0.417,1.044-1.144,1.063C233.879,155.977,231.525,155.766,229.189,156.045z M215.8,134.781
	c-0.908-0.05-1.818-0.065-2.721-0.159c-1.339-0.132-1.771,0.885-2.398,1.745c-0.629,0.86-0.056,1.381,0.351,1.991
	c0.546,0.814,1.101,1.623,1.637,2.444c0.302,0.463,0.707,0.864,1.222,0.951c2.21,0.404,4.406,1.079,6.678,0.881
	c3.454-0.3,6.895-0.77,10.349-1.049c2.552-0.178,5.077-0.645,7.524-1.391c3.455-1.083,6.922-2.082,9.721-4.586
	c1.068-0.953,2.382-1.574,3.731-2.116c1.351-0.541,2.65-1.103,3.928-1.746c1.128-0.571,2.102-1.695,1.952-2.784
	c-0.147-1.091-1.489-1.48-2.725-1.587c-3.566-0.325-7.096-0.277-10.587,0.595c-0.707,0.175-1.205,0.551-1.475,1.269
	c-0.401,1.073-1.252,1.453-2.351,1.376c-0.749-0.052-1.494-0.075-2.247-0.159c-2.826-0.343-5.608-0.732-8.264,1.112
	c-2.097,1.424-4.586,2.245-6.967,3.204c-1.029,0.414-2.101,0.582-3.101,0.341c-1.42-0.344-2.835-0.3-4.264-0.329L215.8,134.781z"></path>
</svg>
