<svg version="1.1" id="Ebene_1" xmlns="http://www.w3.org/2000/svg" xmlns:xlink="http://www.w3.org/1999/xlink" x="0px" y="0px"
	 width="616.411px" height="23.197px" viewBox="168.327 267.866 616.411 23.197"
	 enable-background="new 168.327 267.866 616.411 23.197" xml:space="preserve">
<title>Topo-Icons</title>
<path d="M724.3,279.258c0,10.248-0.14,10.402-10.612,10.332c-10.247,0-10.793-0.602-10.863-10.514
	c0-10.612,0.658-11.312,11.368-11.2C723.6,267.974,724.286,268.716,724.3,279.258z"/>
<path d="M784.738,278.852c0,10.261-0.687,10.864-11.83,10.738c-9.632-0.111-9.632-0.111-9.646-10.094
	c0-10.976,0.687-11.718,11.074-11.62C784.262,267.988,784.752,268.506,784.738,278.852z"/>
<path d="M358.2,269.584c9.142,0.238,10.01,1.134,9.8,10.276c-0.196,9.506-2.268,11.369-12.082,10.906
	c-8.498-0.42-9.8-2.058-9.548-12.194C346.566,269.444,346.79,269.276,358.2,269.584z"/>
<path d="M189.094,280.154c0,10.907,0,10.892-9.996,10.907c-12.026,0-9.884-0.603-10.668-13.035c-0.504-7.868,0.532-8.4,10.248-8.4
	C189.038,269.514,189.038,269.514,189.094,280.154z"/>
<path d="M534.852,289.506c-9.281,0.084-9.394,0-9.533-9.03c-0.154-10.682,0.392-11.2,11.199-11.284
	c9.801,0,10.528,0.658,10.486,9.562C546.962,288.639,546.108,289.395,534.852,289.506z"/>
<path d="M604.488,280.742c0,8.708,0,8.708-9.059,8.848c-10.737,0.168-11.088-0.14-11.199-9.8c0-10.99,0.42-11.424,12.25-11.34
	C603.424,268.478,604.432,270.032,604.488,280.742z"/>
<path d="M298.224,290.682c-9.716,0.561-10.164,0.225-10.598-7.714c-0.658-12.082-0.154-13.006,7.308-13.384
	c13.146-0.672,13.818-0.308,14.154,7.77C309.606,289.674,309.298,290.052,298.224,290.682z"/>
<path d="M237.926,269.584c9.968,0,9.968,0,9.898,10.906c0,10.598,0,10.598-10.458,10.57c-9.45,0-10.556-1.4-10.332-12.32
	C227.216,269.99,227.748,269.542,237.926,269.584z"/>
<path d="M665.038,279.86c0,9.716,0,9.716-9.912,9.73c-8.96,0-11.494-2.352-11.466-10.682c0.027-8.33,1.722-10.808,8.764-10.304
	C666.676,269.626,664.8,268.926,665.038,279.86z"/>
<path d="M486.063,280.098c0,8.988-1.009,10.08-8.723,10.052c-11.284,0-12.796-1.4-12.684-11.2c0.084-7.952,2.142-9.492,12.445-9.352
	C486.132,269.71,486.132,269.71,486.063,280.098z"/>
<path d="M425.876,289.59c-3.514,0-5.852,0-8.19,0c-10.416-0.182-10.416-0.182-10.374-10.22c0-9.8,0-9.8,9.604-9.8
	c9.604,0,11.956,2.898,10.458,12.6C427.01,284.452,426.464,286.721,425.876,289.59z"/>
</svg>
