<svg version="1.1" id="Ebene_1" xmlns="http://www.w3.org/2000/svg" xmlns:xlink="http://www.w3.org/1999/xlink" x="0px" y="0px" width="60px" height="60px" viewBox="233.972 68.689 60 60" enable-background="new 233.972 68.689 60 60" xml:space="preserve">
<g>
	<path d="M274.007,109.389c3.438-0.593,2.787-0.43,2.785-2.983c0-4.733,0.004-9.468,0.008-14.201c0-0.42-0.236-1.071,0.494-1.123
		c0.736-0.052,0.613,0.57,0.613,1.017c0.025,1.284,0.029,2.568,0.039,3.853c0.021,3.955-0.232,7.918,0.236,11.797
		c0.383,0.307,0.623,0.077,0.879-0.027c1.996-0.828,1.998-0.828,1.998-2.942V93.202c-0.023-0.295-0.02-0.593,0.012-0.887
		c0.082-0.45-0.307-1.252,0.559-1.199c0.824,0.049,0.398,0.83,0.486,1.292c0.035,0.294,0.039,0.593,0.012,0.888v12.581
		c1.193-0.406,1.92-1.185,2.754-1.825c0.539-0.42,0.389-0.954,0.395-1.458c0.016-3.327-0.014-6.649,0.025-9.975
		c0.006-0.547-0.406-1.538,0.619-1.498c0.865,0.031,0.459,0.946,0.469,1.457c0.037,3.144,0.02,6.287,0.02,9.478
		c1.51-0.868,3.125-3.566,3.145-5.217c0.018-1.602,0-3.21,0.012-4.81c0-0.385-0.119-0.933,0.51-0.935
		c0.59,0,0.525,0.513,0.564,0.917c0.037,0.171,0.094,0.337,0.17,0.495c0.305-0.236,0.223-0.537,0.232-0.805
		c0.033-0.865,0.678-0.657,1.172-0.655c0.582,0,0.625,0.417,0.576,0.873c-0.492,4.402-1.988,8.368-5.047,11.663
		c-4.467,4.819-10.197,7.166-16.492,8.333c-6.014,1.112-12.201,0.811-18.076-0.882c-4.883-1.376-9.375-3.647-12.908-7.446
		c-2.822-3.031-4.38-6.686-5.075-10.726c-0.061-0.346,0-0.711-0.011-1.071c0-0.411,0.164-0.675,0.597-0.73
		c0.458-0.057,0.863,0.051,1.005,0.521c0.119,0.39,0.105,0.818,0.18,1.223c0.341,1.835,0.748,3.656,2.015,5.245
		c0-1.801,0-3.6,0-5.401c-0.006-0.413,0.019-0.827,0.071-1.237c0.039-0.273,0.292-0.35,0.542-0.336
		c0.25,0.012,0.458,0.133,0.475,0.417c0.031,0.764,0.059,1.538,0.059,2.306c0,1.781,0.068,3.566-0.051,5.339
		c-0.085,1.252,0.366,2.183,1.197,2.994c0.583,0.565,1.071,1.258,1.979,1.718V93.056c0-0.475,0-0.95,0.023-1.424
		c-0.011-0.276,0.204-0.507,0.48-0.519c0.034-0.001,0.068,0.001,0.102,0.007c0.245,0.01,0.438,0.213,0.438,0.458
		c0.017,0.417,0.022,0.831,0.022,1.247c0,3.325,0,6.649,0,9.974c0,2.42,0.356,2.877,2.876,3.698
		c0.378-0.472,0.181-1.021,0.182-1.528c0.019-4.036-0.011-8.073,0.034-12.11c0-0.602-0.422-1.699,0.657-1.668
		c0.917,0.027,0.499,1.053,0.505,1.62c0.04,4.279,0.096,8.551-0.021,12.822c-0.041,1.451,0.406,2.223,1.76,2.566
		c0.326,0.106,0.643,0.239,0.947,0.396c0.6-0.338,0.405-0.858,0.407-1.302c0.006-4.748,0.006-9.497,0-14.247
		c0-0.415,0-0.832,0.01-1.245c0.009-0.386,0.115-0.745,0.583-0.712c0.468,0.032,0.502,0.429,0.504,0.794
		c0.006,1.427,0.006,2.854,0,4.28c0,3.739,0,7.481,0,11.221c0,1.73,0.72,2.411,2.446,2.366c0.347-0.011,0.573-0.13,0.589-0.493
		c0.022-0.476,0.028-0.95,0.028-1.425c0-5.105-0.009-10.21,0.017-15.315c0-0.513-0.355-1.393,0.577-1.399
		c0.933-0.006,0.597,0.87,0.599,1.384c0.022,5.166,0.015,10.331,0.015,15.497c0,0.415,0.016,0.829,0,1.245
		c-0.026,0.723,0.305,1.11,1.032,1.156c0.292,0.02,0.584,0.066,0.88,0.092c0.975,0.096,1.088,0,1.149-1.022
		c0.024-0.414,0-0.832,0-1.247V93.087c0-0.414,0-0.83,0-1.245c0-0.392,0.096-0.745,0.56-0.739c0.524,0.007,0.448,0.445,0.458,0.787
		c0.022,1.069,0.046,2.14,0.047,3.202c0,4.749,0,9.499,0.01,14.249c0,0.504-0.202,1.201,0.458,1.385
		c0.802,0.216,1.647,0.208,2.444-0.02c0.243-0.066,0.222-0.386,0.226-0.622c0-0.416,0-0.83,0-1.246
		c0-5.463-0.012-10.924,0.018-16.386c0-0.458-0.355-1.259,0.43-1.312c0.916-0.062,0.668,0.798,0.668,1.332
		c0.018,5.461,0.012,10.924,0.012,16.386c0,0.415,0.016,0.831,0,1.245c-0.016,0.542,0.266,0.745,0.762,0.718
		c0.24-0.014,0.477-0.022,0.713-0.053c1.643-0.204,1.656-0.206,1.66-1.834c0-5.461,0-10.923,0.016-16.385
		c0-0.481-0.283-1.341,0.324-1.375c0.951-0.058,0.486,0.868,0.539,1.375c0.287,2.71,0.115,5.432,0.121,8.147
		c0,2.896,0.02,5.792,0.059,8.69c0.012,1.055,0.072,1.069,1.166,0.905c1.9-0.291,2.037-0.458,1.988-2.386
		c-0.119-5.142-0.104-10.284,0.016-15.426c0.01-0.458-0.307-1.313,0.416-1.292c0.561,0.013,0.574,0.806,0.574,1.428
		C273.862,98.145,273.938,103.683,274.007,109.389z"></path>
</g>
</svg>
