<svg version="1.1" id="Ebene_1" xmlns="http://www.w3.org/2000/svg" xmlns:xlink="http://www.w3.org/1999/xlink" x="0px" y="0px" width="60px" height="60px" viewBox="-7.308 -15.987 60 60" enable-background="new -7.308 -15.987 60 60" xml:space="preserve">
<path d="M23.967,0.558c4.357,0.297,8.867-0.324,13.352,0.357c3.672,0.559,5.83,2.498,6.139,6.288
	c0.539,6.506,1.902,12.889,2.635,19.359c0.061,0.536,0.436,1.194-0.117,1.619c-0.363,0.256-0.813,0.36-1.25,0.295
	c-0.627-0.129-0.553-0.829-0.619-1.288c-0.654-4.434-1.279-8.874-1.875-13.319c-0.295-2.217-0.473-4.448-0.756-6.67
	c-0.361-2.909-2.467-4.636-6.283-4.687c-7.535-0.116-15.074-0.049-22.613-0.016c-1.014,0-2.035,0.208-3.033,0.417
	c-2.631,0.553-4.02,2.139-4.33,4.909c-0.693,6.179-1.381,12.358-2.057,18.538c-0.021,0.19,0.037,0.406-0.033,0.573
	c-0.289,0.684-0.035,1.877-1.363,1.609c-1.143-0.224-0.891-1.22-0.732-1.876c0.303-1.263,0.293-2.542,0.449-3.81
	c0.662-5.391,1.232-10.795,1.994-16.173c0.455-3.24,2.98-5.326,6.311-5.768C14.452,0.298,19.147,0.807,23.967,0.558z"></path>
</svg>
