<svg version="1.1" id="Ebene_1" xmlns="http://www.w3.org/2000/svg" xmlns:xlink="http://www.w3.org/1999/xlink" x="0px" y="0px" width="60px" height="60px" viewBox="118.485 180.598 60 60" enable-background="new 118.485 180.598 60 60" xml:space="preserve">
<path d="M136.86,231.726c-0.938-3.493-1.652-6.685-2.653-9.802c-0.219-0.681,0.009-0.922,0.624-0.739
	c3.127,0.936,6.249,1.881,9.369,2.839c0.042,0.013,0.066,0.084,0.189,0.254c-0.688,0.99-1.612,1.841-2.535,2.656
	c-0.65,0.575-0.664,0.953-0.042,1.503c3.943,3.486,8.427,4.793,13.658,2.301c1.878-0.894,3.57-2.065,5.269-3.248
	c0.729-0.509,0.688-1.007,0.444-1.593c-0.945-2.28-1.953-4.535-2.911-6.812c-1.535-3.646-3.058-7.297-4.568-10.955
	c-1.076-2.595-2.14-5.195-3.189-7.802c-0.306-0.76-0.837-1.123-1.628-1.35c-1.948-0.551-3.702-3.399-2.065-5.938
	c0.964-1.502,2.22-2.052,3.939-1.744c1.446,0.261,2.589,1.436,2.942,3.015c0.315,1.4,0.008,2.696-0.991,3.668
	c-0.733,0.713-0.662,1.31-0.315,2.107c0.894,2.052,1.746,4.123,2.615,6.194c1.369,3.279,2.743,6.559,4.099,9.843
	c1.313,3.178,2.613,6.359,3.905,9.545c0.496,1.225,0.502,1.273-0.734,1.751c-1.203,0.461-2.202,1.229-3.228,1.964
	c-1.578,1.155-3.33,2.052-5.19,2.653c-4.233,1.327-8.045,0.378-11.463-2.329c-1.95-1.542-1.927-1.569-3.65,0.156
	C138.177,230.421,137.612,230.979,136.86,231.726z M151.92,195.246c0-1.209-0.897-2.26-1.913-2.232
	c-0.92,0.025-1.801,1.101-1.915,2.085c-0.138,1.183,1.101,2.312,1.872,2.34C151.012,197.474,151.917,196.429,151.92,195.246
	L151.92,195.246z"></path>
</svg>
