<svg version="1.1" id="Ebene_1" xmlns="http://www.w3.org/2000/svg" xmlns:xlink="http://www.w3.org/1999/xlink" x="0px" y="0px"
	 width="49.293px" height="18.567px" viewBox="468.172 248.699 49.293 18.567"
	 enable-background="new 468.172 248.699 49.293 18.567" xml:space="preserve">
<title>Topo-Icons</title>
<path d="M511.465,256.549c-0.102,0.519-0.07,1.228-0.251,1.937c-0.84,3.273-3.719,3.53-5.765,2.466
	c-1.335-0.696-2.475-1.641-3.478-2.742c-0.526-0.574-0.863-0.493-1.367,0.018c-2.486,2.524-5.004,5.02-7.513,7.523
	c-0.399,0.399-0.818,0.78-1.202,1.194c-0.333,0.358-0.605,0.472-1.013,0.06c-0.408-0.411-0.446-0.72-0.014-1.147
	c1.935-1.914,3.857-3.841,5.767-5.781c3.299-3.37,6.588-6.751,9.864-10.144c0.069-0.073,0.145-0.142,0.218-0.213
	c1.466-1.438,1.403-1.404,2.434,0.415c0.703,1.244,1.52,2.409,1.935,3.81C511.317,254.747,511.392,255.55,511.465,256.549z
	 M509.974,256.605c-0.073-1.785-0.661-3.51-1.689-4.971c-0.426-0.613-0.653-0.631-1.202-0.066c-1.396,1.434-2.745,2.912-4.155,4.33
	c-0.398,0.402-0.326,0.729-0.035,1.053c1.073,1.188,2.24,2.274,3.779,2.827c1.49,0.536,2.669-0.072,3.101-1.594
	C509.921,257.648,509.915,257.068,509.974,256.605z"/>
</svg>
