<svg version="1.1" id="Ebene_1" xmlns="http://www.w3.org/2000/svg" xmlns:xlink="http://www.w3.org/1999/xlink" x="0px" y="0px" width="60px" height="60px" viewBox="173.074 192.938 60 60" enable-background="new 173.074 192.938 60 60" xml:space="preserve">
<path d="M209.854,208.099c-0.854,0.975-1.622,1.859-2.401,2.73c-0.2,0.226-0.246,0.425-0.019,0.647
	c0.27,0.263,0.528,0.543,0.814,0.788c2.034,1.74,4.081,3.468,6.11,5.215c0.226,0.194,0.612,0.365,0.368,0.813
	c-0.243,0.448-0.562,0.55-1.012,0.186c-0.908-0.739-1.777-1.523-2.665-2.292c-1.525-1.309-3.052-2.613-4.621-3.955
	c-0.993,0.742-1.642,1.764-2.469,2.627c-0.391,0.409-0.191,0.751,0.162,1.059c1.07,0.938,2.135,1.881,3.209,2.82
	c1.168,1.016,2.344,2.026,3.526,3.032c0.217,0.186,0.548,0.319,0.25,0.683c-0.254,0.313-0.552,0.576-0.956,0.261
	c-0.403-0.315-0.811-0.723-1.224-1.077c-1.9-1.638-3.812-3.265-5.703-4.913c-0.375-0.326-0.646-0.291-0.948,0.072
	c-0.591,0.705-1.173,1.424-1.806,2.093c-0.393,0.416-0.322,0.705,0.067,1.045c1.403,1.193,2.803,2.39,4.199,3.59
	c0.982,0.847,1.95,1.707,2.922,2.56c-0.718,0.857-0.733,0.882-1.499,0.233c-2.115-1.781-4.231-3.561-6.299-5.385
	c-0.468-0.412-0.741-0.412-1.123,0.033c-0.678,0.79-1.381,1.556-2.158,2.428c2.621,2.274,5.169,4.487,7.732,6.714
	c-0.911,0.727-0.909,0.725-1.622,0.118c-2.102-1.782-4.219-3.545-6.296-5.367c-0.464-0.405-0.758-0.396-1.137,0.036
	c-0.552,0.629-1.125,1.233-1.682,1.865c-0.354,0.393-0.282,0.738,0.108,1.075c1.777,1.528,3.55,3.059,5.318,4.593
	c0.474,0.412,0.925,0.852,1.41,1.248c0.285,0.232,0.366,0.446,0.086,0.718c-0.239,0.232-0.476,0.528-0.85,0.201
	c-0.854-0.741-1.71-1.478-2.56-2.226c-1.354-1.188-2.706-2.381-4.055-3.579c-0.453-0.405-0.805-0.442-1.261,0.048
	c-0.722,0.744-1.374,1.552-1.95,2.414c1.123,0.99,2.237,1.988,3.367,2.967c1.234,1.068,2.488,2.116,3.719,3.185
	c0.259,0.224,0.689,0.454,0.243,0.9c-0.367,0.37-0.685,0.353-1.081,0c-2.036-1.804-4.09-3.586-6.141-5.374
	c-0.125-0.11-0.266-0.204-0.39-0.317c-0.429-0.393-0.797-0.344-1.165,0.104c-0.693,0.839-1.41,1.659-2.156,2.538
	c0.116,0.385,0.473,0.628,0.772,0.882c2.087,1.811,4.19,3.601,6.283,5.4c0.266,0.229,0.696,0.416,0.246,0.882
	c-0.373,0.382-0.664,0.353-1.058,0c-1.978-1.744-3.979-3.46-5.973-5.186c-0.223-0.19-0.464-0.361-0.674-0.563
	c-0.344-0.33-0.635-0.325-0.946,0.053c-0.688,0.835-1.395,1.657-2.116,2.501c0.442,0.687,1.109,1.076,1.661,1.569
	c1.712,1.534,3.475,3.01,5.221,4.506c0.069,0.047,0.135,0.1,0.195,0.157c0.236,0.295,0.738,0.496,0.256,1.011
	c-0.415,0.442-0.705,0.27-1.059-0.062c-0.395-0.376-0.819-0.718-1.233-1.076l-5.173-4.545c-0.705-0.618-0.72-0.606-1.333,0.109
	c-0.545,0.637-1.119,1.248-1.682,1.869c-0.606,0.668-0.605,0.705,0.049,1.279c2.18,1.896,4.358,3.792,6.536,5.688
	c0.504,0.443,0.491,0.748,0.021,1.094c-0.319,0.234-0.528,0.079-0.765-0.129c-1.195-1.058-2.403-2.086-3.595-3.138
	c-1.192-1.053-2.37-2.128-3.562-3.183c-0.606-0.538-0.659-1.11-0.116-1.734c1.818-2.08,3.64-4.157,5.465-6.232
	c3.006-3.429,6.011-6.86,9.017-10.293c2.865-3.275,5.738-6.546,8.586-9.84c3.173-3.668,6.303-7.369,9.469-11.04
	c2.791-3.233,5.606-6.445,8.408-9.668c0.808-0.931,1.4-1.033,2.327-0.254c2.401,2.019,4.774,4.069,7.151,6.117
	c0.244,0.21,0.528,0.459,0.199,0.842c-0.33,0.382-0.656,0.388-1.058,0.029c-1.628-1.442-3.282-2.855-4.923-4.282
	c-0.604-0.521-1.203-1.047-1.797-1.58c-0.409-0.362-0.769-0.425-1.156,0.067c-0.494,0.622-1.028,1.215-1.567,1.798
	c-0.291,0.314-0.286,0.59,0.011,0.868c0.611,0.574,1.218,1.154,1.85,1.706c1.638,1.429,3.283,2.849,4.937,4.26
	c0.285,0.245,0.68,0.423,0.353,0.896c-0.291,0.423-0.681,0.464-1.177,0.035c-1.802-1.563-3.584-3.152-5.373-4.729
	c-0.378-0.333-0.759-0.661-1.145-0.984c-0.705-0.592-0.738-0.592-1.287,0.05c-0.571,0.67-1.137,1.343-1.697,2.021
	c-0.503,0.611-0.514,0.633,0.104,1.191c0.963,0.869,1.939,1.717,2.925,2.563c1.234,1.058,2.488,2.115,3.717,3.183
	c0.267,0.232,0.624,0.46,0.195,0.915c-0.428,0.454-0.675,0.276-1.045-0.046c-1.891-1.654-3.798-3.288-5.702-4.925
	c-0.474-0.407-0.959-0.802-1.479-1.233c-0.889,0.837-1.713,1.738-2.469,2.697c-0.296,0.363-0.176,0.589,0.109,0.839
	c2.031,1.738,4.062,3.479,6.093,5.223c0.286,0.246,0.558,0.511,0.831,0.77c0.234,0.223,0.375,0.441,0.077,0.739
	c-0.263,0.261-0.483,0.438-0.841,0.127c-0.947-0.825-1.915-1.626-2.868-2.442C212.931,210.744,211.441,209.461,209.854,208.099z"></path>
</svg>
