<svg version="1.1" id="Ebene_1" xmlns="http://www.w3.org/2000/svg" xmlns:xlink="http://www.w3.org/1999/xlink" x="0px" y="0px" width="60px" height="60px" viewBox="77.753 207.338 60 60" enable-background="new 77.753 207.338 60 60" xml:space="preserve">
<path d="M107.412,246.944c0-3.177-0.014-6.351,0-9.527c0.006-1.013-0.271-1.47-1.44-1.666c-5.083-0.852-8.852-5.805-8.451-10.878
	c0.383-4.857,5.053-8.839,10.146-9.162c7.512-0.475,12.53,6.013,11.576,11.444c-0.731,4.163-4.178,7.782-8.701,8.601
	c-1.05,0.19-1.343,0.569-1.341,1.548c0.021,6.535,0.008,13.068,0.02,19.614c0,0.337-0.171,0.863,0.284,0.94
	c0.219,0.036,0.575-0.384,0.774-0.664c0.719-1.011,1.42-2.032,2.078-3.089c0.45-0.729,0.909-0.636,1.55-0.27
	c0.733,0.426,0.519,0.874,0.19,1.384c-1.716,2.662-3.433,5.324-5.147,7.987c-0.605,0.944-1.005,0.802-1.563-0.105
	c-1.601-2.577-3.287-5.102-4.945-7.644c-0.401-0.615-0.71-1.138,0.165-1.693c0.875-0.558,1.214-0.021,1.611,0.581
	c0.617,0.933,1.242,1.859,1.876,2.781c0.238,0.345,0.418,0.938,0.901,0.813c0.626-0.16,0.407-0.828,0.411-1.285
	C107.425,253.42,107.413,250.182,107.412,246.944z M108.532,225.997c-2.557,0-5.113,0.041-7.66-0.018
	c-1.319-0.031-1.624,0.536-1.373,1.715c0.71,3.371,4.532,6.352,8.252,6.414c4.674,0.076,8.598-2.512,9.508-6.237
	c0.313-1.278,0.151-1.977-1.442-1.906C113.393,226.073,110.962,225.994,108.532,225.997z M108.48,224.386
	c2.355,0,4.714,0.017,7.07-0.008c1.127-0.012,2.141-0.223,1.313-1.721c-1.83-3.315-4.608-5.107-8.435-5.131
	c-3.828-0.024-6.651,1.65-8.463,5.022c-0.751,1.396-0.256,1.887,1.237,1.847C103.627,224.347,106.054,224.387,108.48,224.386z"></path>
</svg>
