<svg version="1.1" id="Ebene_1" xmlns="http://www.w3.org/2000/svg" xmlns:xlink="http://www.w3.org/1999/xlink" x="0px" y="0px" width="60px" height="60px" viewBox="227.825 87.66 60 60" enable-background="new 227.825 87.66 60 60" xml:space="preserve">
<path d="M286.549,119.698c0,3.682,0.013,7.362,0,11.042c0,1.878-0.116,1.974-2.034,1.984c-2.476,0.012-4.95,0.224-7.41,0.138
	c-3.444-0.124-6.888,0.239-10.326-0.071c-2.281-0.205-4.535,0.296-6.821,0.225c-4.352-0.136-8.708-0.032-13.061-0.063
	c-4.765-0.032-9.539,0.043-14.309,0.104c-0.395,0-0.791,0.017-1.183,0c-1.517-0.08-1.795-0.339-1.798-1.912
	c-0.023-7.562-0.024-15.121-0.003-22.678c0-0.436-0.173-0.981,0.309-1.251c0.254-0.141,0.644-0.117,0.953-0.063
	c0.53,0.093,0.455,0.567,0.464,0.942c0.01,2.824,0.016,5.648,0.013,8.473c0,3.808-0.008,7.616,0.013,11.423
	c0.03,0.785,0.099,1.57,0.206,2.35c0.1,0.928,0.773,0.88,1.458,0.871c0.801-0.011,0.746-0.564,0.747-1.09c0-1.381,0-2.759,0-4.139
	v-16.554c0-0.463,0.013-0.92,0.01-1.38c0-0.525,0.352-0.649,0.772-0.675c0.51-0.033,0.451,0.388,0.454,0.674
	c0.021,2.43,0.016,4.859,0.026,7.29c0.019,4.731,0.029,9.462,0.075,14.194c0.014,1.406,1.718,2.259,2.995,1.548
	c0.237-0.122,0.386-0.364,0.388-0.632c0.019-0.522,0.026-1.046,0.026-1.57c0-6.638-0.018-13.276,0.014-19.915
	c0-0.524-0.464-1.547,0.662-1.458c0.868,0.065,0.477,0.951,0.478,1.455c0.031,6.638,0.021,13.277,0.021,19.917
	c0,0.465,0.017,0.922,0,1.38c-0.015,0.578,0.29,0.773,0.828,0.86c2.265,0.354,2.651,0.047,2.651-2.203c0-6.441,0-12.883,0-19.326
	c0-0.464,0-0.918,0.012-1.381c0.01-0.429,0.122-0.785,0.663-0.754c0.542,0.03,0.555,0.446,0.565,0.84c0.011,0.464,0,0.92,0,1.38
	c0,6.574,0.003,13.146,0.011,19.718c0,0.559-0.288,1.335,0.363,1.618c0.85,0.371,1.806,0.296,2.705,0
	c0.268-0.089,0.38-0.352,0.388-0.627c0.015-0.527,0.019-1.054,0.019-1.576c0-6.641-0.011-13.28,0.023-19.918
	c0-0.553-0.457-1.564,0.487-1.597c0.881-0.029,0.664,0.96,0.666,1.577c0.013,5.785,0.013,11.571,0,17.355c0,1.051,0,2.103,0,3.153
	c0.019,1.856,0.024,1.856,1.856,1.8c1.45-0.047,1.525-0.107,1.527-1.829c0.01-6.573,0.01-13.147,0-19.721
	c0-0.524,0-1.051,0.034-1.575c0.023-0.363,0.215-0.6,0.619-0.598c0.403,0.001,0.619,0.188,0.645,0.57
	c0.032,0.524,0.032,1.051,0.032,1.576c0,6.572,0.004,13.145,0.014,19.719c0,0.557-0.294,1.365,0.349,1.611
	c0.834,0.323,1.792,0.253,2.688,0.068c0.272-0.057,0.309-0.397,0.32-0.661c0.019-0.524,0.026-1.051,0.026-1.577
	c0-6.638-0.009-13.277,0.018-19.916c0-0.563-0.422-1.547,0.567-1.583c1.034-0.041,0.619,0.962,0.619,1.501
	c0.033,5.783,0.021,11.567,0.021,17.353c0,1.052-0.01,2.103,0,3.155c0.02,1.846,0.025,1.846,1.873,1.811
	c1.475-0.026,1.512-0.026,1.522-1.573c0.025-4.927,0.021-9.853,0.016-14.78c0-2.165-0.032-4.332-0.047-6.498
	c-0.004-0.196,0.005-0.393,0.027-0.589c0.01-0.272,0.227-0.491,0.498-0.502c0.362-0.032,0.705,0.098,0.739,0.477
	c0.081,0.91,0.125,1.825,0.126,2.74c0.01,6.112,0.01,12.225,0,18.339c0,0.524,0.012,1.051,0.023,1.576
	c0.012,0.572,0.334,0.815,0.884,0.813c0.328,0,0.658,0.012,0.985,0.008c1.469-0.021,1.496-0.022,1.499-1.564
	c0.012-5.724,0-11.438,0-17.157c0-1.445,0-2.892,0.007-4.332c0-0.309-0.087-0.742,0.321-0.815c0.498-0.088,0.679,0.346,0.704,0.742
	c0.07,1.175,0.122,2.354,0.125,3.531c0.018,6.034,0.011,12.069,0.033,18.101c0,1.479,0.039,1.479,1.563,1.506h0.395
	c1.511-0.022,1.518-0.022,1.518-1.523c0-6.433-0.012-12.865,0.012-19.296c0-0.908-0.363-1.81-0.012-2.727
	c0.114-0.298,0.268-0.446,0.556-0.386c0.203,0.021,0.359,0.189,0.366,0.393c0.026,0.656,0.08,1.312,0.082,1.967
	c0.008,5.192,0.008,10.386,0,15.577c0,1.507,0.015,3.013,0.051,4.516c0.031,1.322,0.28,1.547,1.665,1.547
	c0.394,0.008,0.789-0.022,1.177-0.092c0.518-0.1,0.715-0.42,0.697-0.986c-0.087-3.027-0.309-6.066-0.142-9.083
	c0.14-2.589-0.252-5.166,0.155-7.766c0.222-1.417-0.354-2.939-0.144-4.414c0.078-0.553-0.343-1.573,0.589-1.62
	c1.106-0.058,0.576,0.976,0.582,1.498c0.066,5.585,0.081,11.172,0.103,16.756c0,1.38-0.018,2.763,0.008,4.143
	c0.028,1.454,0.047,1.454,1.4,1.501c1.972,0.07,1.986,0.07,1.988-1.867c0-6.641-0.018-13.279,0.031-19.918
	c0-0.719-0.572-2.067,0.698-2.025c0.817,0.027,0.434,1.334,0.437,2.054c0.033,6.443,0.021,12.883,0.021,19.326
	c0,0.464,0.02,0.928,0,1.379c-0.038,0.746,0.278,1.099,1.04,1.053c0.393-0.02,0.787-0.02,1.182,0
	c0.573,0.024,0.772-0.229,0.824-0.808c0.206-2.145,0.05-4.292,0.047-6.437c0-3.078-0.093-6.155,0.047-9.237
	c0.094-2.012-0.075-4.042-0.103-6.065c0-0.502-0.122-1.083,0.503-1.365c0.816-0.379,1.449,0.064,1.454,1.093
	C286.558,112.074,286.549,115.892,286.549,119.698z"></path>
</svg>
