<svg version="1.1" id="Ebene_1" xmlns="http://www.w3.org/2000/svg" xmlns:xlink="http://www.w3.org/1999/xlink" x="0px" y="0px" width="60px" height="60px" viewBox="213.446 115.171 60 60" enable-background="new 213.446 115.171 60 60" xml:space="preserve">
<g>
	<path d="M246.578,145.489c-0.265,0.17-0.634,0.344-0.909,0.606c-0.699,0.668-1.098,0.07-1.587-0.301
		c-0.615-0.465-0.513-0.942-0.019-1.365c0.93-0.794,0.343-1.335-0.234-1.936c-0.404-0.421-1.115-0.825-0.4-1.537
		c0.615-0.606,1.302-0.994,1.979-0.095c0.767,1.01,1.5,0.933,2.295,0.048c0.229-0.218,0.481-0.409,0.756-0.565
		c0.75-0.496,1.186,0.162,1.611,0.537c0.461,0.399,0.186,0.867-0.208,1.193c-0.928,0.777-1.661,1.536-0.304,2.597
		c0.415,0.321,0.568,0.83,0.092,1.194c-0.477,0.366-0.903,0.979-1.643,0.483C247.563,146.071,247.308,145.489,246.578,145.489z"></path>
	<path d="M217.881,141.77c1.683-1.818,1.683-1.818,3.69-0.078c0.696-0.083,1.039-0.663,1.418-1.129c0.708-0.868,1.375-0.489,2.016,0
		c0.434,0.33,0.487,0.785,0.074,1.213c-0.171,0.171-0.342,0.328-0.499,0.513c-0.985,1.116-0.98,1.114,0.072,2.389
		c0.134,0.189,0.254,0.387,0.36,0.593c-1.299,1.35-1.355,1.416-2.521,0.429c-0.7-0.592-1.057-0.364-1.525,0.184
		c-0.501,0.583-1.039,0.632-1.595,0.027c-0.513-0.559-0.994-1.063-0.054-1.685c0.617-0.41,0.513-0.916,0-1.354
		C218.906,142.515,218.443,142.197,217.881,141.77z"></path>
	<path d="M220.318,154.163c-0.793,0.973-1.471,1.793-2.5,0.514c-0.532-0.662-1.196-0.425-1.646,0
		c-0.995,0.958-1.478,0.181-2.048-0.463c-0.257-0.288-0.257-0.554,0.061-0.778c1.214-0.854,0.546-1.55-0.17-2.257
		c-0.202-0.218-0.392-0.445-0.569-0.683c0.225-0.818,0.877-1.11,1.396-1.611l2.01,1.758c0.734-0.302,1.132-0.911,1.643-1.389
		c0.673-0.626,1.101-0.145,1.581,0.297c0.512,0.479,0.449,0.87,0.035,1.401C218.921,152.456,218.943,152.467,220.318,154.163z"></path>
	<path d="M252.049,159.65c-1.93,2.009-1.93,2.009-0.449,3.85c-0.223,0.742-0.935,0.955-1.55,1.348
		c-0.36-0.288-0.738-0.564-1.085-0.875c-0.422-0.381-0.943-0.434-1.261-0.038c-1.225,1.514-1.764,0.076-2.574-0.513
		c0.139-0.193,0.291-0.375,0.457-0.548c0.8-0.717,0.897-1.39-0.055-2.076c-0.682-0.488-0.872-0.998-0.171-1.729
		c0.648-0.684,1.063-0.615,1.668,0.024c0.604,0.643,1.231,1.126,2.193,0.294C250.572,158.22,250.637,158.295,252.049,159.65z"></path>
	<path d="M254.274,142.96c1.224-1.536,1.224-1.536-0.452-3.806c0.638-0.556,0.958-1.707,2.208-0.585s1.346,1.014,2.613-0.154
		c0.283-0.259,0.585-0.496,0.865-0.735c0.674,0.393,1.204,0.835,1.472,1.522c-1.912,2.189-1.912,2.189-0.418,3.835
		c-1.195,1.515-1.209,1.524-2.562,0.611c-0.4-0.273-0.665-0.48-1.225-0.137C255.458,144.325,255.419,144.262,254.274,142.96z"></path>
	<path d="M226.849,163.604c-0.702,0.675-1.353,1.669-2.492,0.332c-0.512-0.602-1.146-0.482-1.625,0.063
		c-0.683,0.776-1.256,0.305-1.815-0.108c-0.776-0.576-0.282-1.077,0.17-1.537c0.74-0.759,0.171-1.223-0.341-1.748
		c-0.385-0.397-1.212-0.706-0.454-1.466c0.62-0.623,1.306-0.874,1.994-0.144c0.875,0.929,1.688,1.003,2.513-0.038
		c0.623-0.784,1.24-0.765,1.963-0.076c0.832,0.792,0.149,1.188-0.341,1.681c-1.025,1.039-1.025,1.046-0.035,2.169
		C226.589,162.956,226.888,163.107,226.849,163.604z"></path>
	<path d="M238.175,139.481c1.675,1.38,1.675,1.38-0.229,3.497c0.162,0.809,0.972,1.194,1.303,1.893
		c-1.222,1.288-1.222,1.27-2.517,0.462c-0.402-0.25-0.746-0.777-1.324-0.056c-0.854,1.066-1.638,0.344-2.352-0.318
		c-0.171-0.26,0.024-0.465,0.171-0.598c0.938-0.894,0.902-1.695-0.104-2.525c-0.382-0.313-1.036-0.662-0.513-1.326
		c0.48-0.606,1.11-0.866,1.878-0.48c0.646,0.326,0.946,1.49,1.91,0.968C237.063,140.632,237.586,139.995,238.175,139.481z"></path>
	<path d="M263.925,130.875c2.181-1.82,2.181-1.82,3.595-0.502c-1.681,2.363-1.681,2.363-0.393,3.962
		c-1.072,1.432-1.085,1.453-2.503,0.562c-0.47-0.292-0.879-0.41-1.242,0.024c-0.71,0.84-1.367,0.597-1.972-0.065
		c-0.604-0.662-0.082-1.141,0.329-1.63c0.149-0.207,0.288-0.421,0.413-0.642l-1.076-1.24c-0.303-0.342-0.803-0.776-0.292-1.175
		c0.513-0.4,1.049-1.1,1.837-0.476C263.049,130.03,263.432,130.433,263.925,130.875z"></path>
	<path d="M251.674,133.04l1.464,1.779c-1.377,1.515-1.377,1.515-3.133,0.079c-0.368,0.25-0.761,0.497-1.13,0.775
		c-0.563,0.421-0.993,0.241-1.434-0.218c-0.439-0.459-0.65-0.906-0.103-1.403c0.927-0.843,0.577-1.437-0.296-2.049
		c-0.512-0.36-1.01-0.853-0.328-1.536c0.544-0.55,1.049-0.934,1.779-0.204c0.381,0.378,0.912,0.609,1.401,0.922
		c0.668-0.121,1.012-0.684,1.409-1.134c0.573-0.65,1.07-0.449,1.619-0.019c0.584,0.458,0.832,0.924,0.171,1.536
		C252.624,131.982,252.216,132.466,251.674,133.04z"></path>
	<path d="M243.235,151.872c0.4,0.493,0.605,0.854,0.904,1.093c0.572,0.464,0.53,0.886,0.047,1.365
		c-0.452,0.451-0.898,1.024-1.536,0.307c-0.854-0.957-1.667-0.957-2.597-0.081c-0.409,0.384-0.884,0.11-1.257-0.229
		c-0.404-0.366-0.54-0.808-0.158-1.234c0.868-0.977,0.655-1.749-0.32-2.495c-0.571-0.439-0.405-0.915,0.056-1.387
		c0.461-0.471,0.93-0.629,1.417-0.148c1.129,1.115,2.12,1.115,3.108-0.196c0.543-0.722,1.053-0.284,1.566,0.16
		c0.654,0.567,0.524,1.024-0.033,1.55C244.034,150.946,243.692,151.373,243.235,151.872z"></path>
	<path d="M272.824,139.538c-0.1,0.61-0.745,0.747-1.048,1.195c-0.477,0.704-0.83,1.323,0.07,1.993
		c0.423,0.314,0.925,0.731,0.371,1.356c-0.557,0.624-1.291,0.884-1.86,0.272c-0.721-0.772-1.318-0.695-2.014-0.125
		c-0.663,0.541-1.212,0.123-1.675-0.245c-0.609-0.486-0.237-0.958,0.197-1.367c1.195-1.137-0.144-1.589-0.633-2.247
		c-0.381-0.512-0.547-1.006,0.018-1.429c0.42-0.314,0.916-0.71,1.464-0.161c0.11,0.11,0.188,0.254,0.301,0.36
		c0.907,0.836,1.667,0.808,2.563-0.16c0.829-0.905,1.491-0.773,2.049,0.126C272.7,139.247,272.766,139.391,272.824,139.538z"></path>
	<path d="M231.145,151.557l1.46,1.783c-0.716,1.042-1.418,1.838-2.602,0.578c-0.566-0.603-1.194-0.318-1.644,0.17
		c-0.752,0.814-1.292,0.155-1.798-0.231c-0.772-0.597-0.209-1.081,0.27-1.507c1.061-0.941-0.095-1.312-0.49-1.844
		c-0.642-0.866-0.511-1.527,0.388-1.976c0.558-0.279,0.854,0.073,1.229,0.354c1.33,1.01,1.365,1.037,2.551-0.086
		c0.59-0.56,1.024-0.896,1.723-0.146c0.522,0.558,0.683,0.994,0.09,1.575C231.935,150.607,231.596,151.041,231.145,151.557z"></path>
	<path d="M255.624,153.344c-0.538,1.174-1.315,1.5-2.375,0.617c-0.525-0.437-0.991-0.763-1.602-0.112
		c-0.723,0.77-1.407,0.502-1.975-0.203c-0.615-0.77,0.253-1.051,0.56-1.519c0.127-0.192,0.241-0.394,0.363-0.598
		c-0.712-0.536-1.34-1.11-1.779-1.85c1.319-1.47,1.412-1.563,2.484-0.504c0.913,0.903,1.464,0.539,2.11-0.188
		c0.539-0.605,1.024-1.168,1.939-0.422c0.623,0.513,0.802,0.907,0.196,1.512c-0.444,0.442-0.854,0.911-1.279,1.356
		C254.468,152.274,255.368,152.575,255.624,153.344z"></path>
	<path d="M264.14,148.85c0.837-0.219,1.149-0.933,1.699-1.365c0.71-0.548,1.195,0.066,1.647,0.416
		c0.453,0.349,0.313,0.799-0.055,1.213c-0.453,0.512-1.248,0.853-1.182,1.645c0.063,0.724,1.024,0.967,1.157,1.786
		c-0.748,0.854-1.491,1.643-2.599,0.33c-0.403-0.479-0.838-0.239-1.194,0.121c-0.411,0.407-0.771,0.725-1.405,0.269
		c-0.714-0.514-1.367-0.962-0.384-1.764c0.771-0.628,0.534-1.081-0.013-1.737c-0.358-0.431-1.472-0.664-0.722-1.642
		c0.751-0.979,1.467-0.58,2.192,0.022C263.574,148.399,263.879,148.638,264.14,148.85z"></path>
	<path d="M239.854,158.604c-0.204,0.232-0.409,0.463-0.611,0.699c-0.399,0.464-1.074,0.76-1.147,1.424
		c-0.066,0.621,0.615,0.841,0.938,1.26c0.267,0.341,0.373,0.674,0.039,1.024c-0.392,0.419-0.914,0.836-1.43,0.531
		c-0.949-0.561-1.719-1.238-2.787-0.099c-0.374,0.4-0.982-0.279-1.389-0.583c-0.496-0.375-0.268-0.868,0.128-1.181
		c1.042-0.823,0.512-1.453-0.215-2.062c-0.513-0.432-0.981-0.854-0.284-1.499c0.605-0.567,1.17-0.706,1.779,0.029
		c0.736,0.884,1.506,0.886,2.426,0.145C238.503,157.334,238.541,157.387,239.854,158.604z"></path>
</g>
</svg>
