<svg version="1.1" id="Ebene_1" xmlns="http://www.w3.org/2000/svg" xmlns:xlink="http://www.w3.org/1999/xlink" x="0px" y="0px" width="60px" height="60px" viewBox="148.438 195.122 60 60" enable-background="new 148.438 195.122 60 60" xml:space="preserve">
<path d="M195.869,218.414c0,4.81,0,9.622,0,14.432c0,1.176-0.129,1.298-1.309,1.305c-2.058,0.015-4.112,0.023-6.166,0.04
	c-0.702,0-0.709,0.015-0.712,0.72c0,3.808,0,7.617,0,11.426c0,0.268-0.007,0.534,0,0.801c0.007,0.268-0.14,0.453-0.421,0.441
	c-0.465-0.021-0.92,0.077-1.391,0.07c-1.786-0.027-3.574-0.103-5.359,0.051c-0.552,0.049-1.111-0.024-1.67-0.023
	c-5.727,0.017-11.455,0.036-17.182,0.058c-0.167,0-0.334,0.007-0.502,0c-0.748-0.04-1.037-0.294-1.042-1.034
	c-0.009-1.228,0.042-2.457,0.048-3.688c0-0.529-0.056-1.063-0.056-1.592c0-7.952,0-15.903,0-23.854c0-0.14,0-0.268,0-0.402
	c0.031-0.807,0.21-1.008,1.011-1.015c1.736-0.013,3.474,0,5.212,0c0.433,0,0.87-0.023,1.302,0c0.463,0.032,0.671-0.111,0.645-0.61
	c-0.035-0.633-0.007-1.262-0.007-1.904v-9.618c0-0.233-0.009-0.469,0.009-0.703c0-0.309,0.252-0.56,0.562-0.56
	c0.005,0,0.013,0,0.019,0c0.234-0.012,0.468,0,0.702,0c2.038,0,4.07,0.016,6.11,0c2.678-0.028,5.358-0.108,8.036-0.127
	c3.635-0.023,7.27-0.013,10.903-0.009c1.124,0,1.263,0.14,1.263,1.279C195.876,208.736,195.873,213.574,195.869,218.414z
	 M186.677,232.053h0.02c0-4.234,0-8.468,0-12.7c0-0.603-0.022-1.203-0.018-1.805c0-0.339-0.162-0.483-0.483-0.487
	c-0.2,0-0.4,0-0.601-0.006c-3.491-0.06-6.979,0.042-10.47,0.052c-4.269,0.01-8.537,0-12.808,0.039
	c-1.295,0.013-1.192-0.168-1.192,1.163c0,9.054,0,18.108,0,27.164c0,1.339-0.1,1.236,1.25,1.236c7.751,0,15.502,0,23.254,0h0.6
	c0.339,0,0.504-0.055,0.495-0.512c-0.05-2.763-0.038-5.526-0.044-8.291c-0.006-1.944-0.003-3.897-0.003-5.848V232.053z
	 M194.879,218.457h-0.014v-1.498c0-4.141,0-8.284,0-12.425c0-0.889-0.011-0.889-0.871-0.907h-0.2h-23.648
	c-0.864,0-0.875,0-0.876,0.905c-0.006,3.574-0.006,7.147,0,10.721c0,0.964-0.044,0.898,0.952,0.898c2.938,0,5.876,0,8.813,0
	c2.397,0,4.796,0,7.189-0.037c1.432-0.023,1.461-0.038,1.461,1.39v14.326c0,0.233,0.011,0.468,0,0.7
	c-0.03,0.461,0.156,0.682,0.635,0.664c0.48-0.02,1.003,0,1.504,0c1.469,0,2.939,0,4.408,0c0.365,0,0.685-0.014,0.644-0.512
	c-0.014-0.166,0.009-0.333,0.009-0.501c-0.002-4.574-0.003-9.146-0.006-13.719V218.457L194.879,218.457z"></path>
</svg>
