<svg version="1.1" id="Ebene_1" xmlns="http://www.w3.org/2000/svg" xmlns:xlink="http://www.w3.org/1999/xlink" x="0px" y="0px" width="60px" height="60px" viewBox="205.088 183.017 60 60" enable-background="new 205.088 183.017 60 60" xml:space="preserve">
<path d="M242.645,227.146c-1.455,0-2.911,0.019-4.361,0c-0.667-0.013-1.513,0.235-1.84-0.592c-0.266-0.665,0.312-1.123,0.727-1.594
	c1.899-2.193,3.798-4.389,5.663-6.61c0.395-0.468,1.137-0.96,0.991-1.497c-0.107-0.406-1.02-0.11-1.569-0.225
	c-0.549-0.113-1.134-0.058-1.693-0.132c-1.39-0.183-1.745-0.851-1.038-2.072c1.292-2.236,2.638-4.443,3.964-6.66
	c0.387-0.648,0.805-1.279,1.168-1.941c0.516-0.934,0.387-1.136-0.756-1.227c-0.188-0.015-0.379,0-0.568,0
	c-1.557-0.1-1.887-0.667-1.091-2.066c0.753-1.317,1.343-2.707,2.025-4.048c1.286-2.537,2.6-5.053,3.901-7.569
	c0.058-0.112,0.099-0.234,0.165-0.34c0.723-1.135,1.424-1.187,2.124-0.048c0.759,1.233,1.402,2.539,2.122,3.796
	c1.351,2.349,2.542,4.789,3.801,7.192c0.225,0.38,0.426,0.774,0.602,1.179c0.361,0.972,0.106,1.402-0.911,1.614
	c-2.156,0.467-2.149,0.458-0.975,2.394c1.472,2.424,2.967,4.839,4.386,7.296c0.752,1.303,0.615,1.482-0.726,2.065
	c-0.639,0.276-1.699,0.189-1.783,0.981c-0.062,0.559,0.593,1.2,0.941,1.796c1.207,2.069,2.44,4.124,3.626,6.204
	c0.686,1.204,0.468,1.666-0.922,1.928c-1.746,0.327-3.521,0.062-5.279,0.155c-1.133,0.06-2.27,0.046-3.403,0.02
	c-0.814-0.021-1.133,0.335-1.118,1.134c0.026,1.519-0.021,3.038,0.014,4.557c0.027,1.199,0.133,1.271,1.314,1.306
	c0.312,0.007,0.633,0,0.948-0.028c0.623-0.044,0.907,0.207,0.935,0.857c0.028,0.651-0.239,0.991-0.841,0.998
	c-2.211,0.03-4.425,0.024-6.637,0.027c-0.525,0-0.815-0.236-0.817-0.801c-0.001-0.563,0.1-1.017,0.799-1.017
	c0.063,0.004,0.128,0.004,0.19,0c2.268-0.288,2.275-0.288,2.246-2.479c-0.015-1.136-0.094-2.273-0.087-3.408
	c0-0.795-0.299-1.153-1.116-1.141c-1.713,0.026-3.417,0.007-5.126,0.007L242.645,227.146z M249.167,225.213L249.167,225.213
	c2.654,0,5.313,0.016,7.967-0.01c0.674,0,1.593,0.321,1.942-0.312c0.277-0.503-0.44-1.104-0.755-1.643
	c-1.112-1.902-2.236-3.798-3.336-5.707c-0.948-1.649-0.833-1.944,0.897-2.562l0.534-0.188c1.112-0.403,1.125-0.412,0.467-1.5
	c-1.698-2.803-3.426-5.572-5.106-8.376c-0.861-1.434-0.512-2.081,1.128-2.22c0.252-0.02,0.509,0.014,0.758-0.019
	c0.829-0.106,0.999-0.371,0.61-1.117c-1.077-2.071-2.18-4.127-3.305-6.169c-0.45-0.817-0.762-2.171-1.527-2.22
	c-0.672-0.042-0.973,1.369-1.402,2.155c-0.155,0.274-0.321,0.541-0.468,0.819c-0.934,1.858-1.887,3.71-2.803,5.582
	c-0.411,0.844-0.25,1.09,0.673,1.211c0.125,0.016,0.253,0,0.378,0.013c2.272,0.174,2.441,0.51,1.274,2.437
	c-1.6,2.634-3.189,5.281-4.771,7.94c-0.612,1.031-0.492,1.283,0.683,1.417c0.688,0.08,1.389,0.039,2.086,0.065
	c0.695,0.027,1.426,0.121,1.768,0.818c0.394,0.805-0.332,1.292-0.747,1.783c-1.986,2.357-4.024,4.672-6.037,7.008
	c-0.156,0.177-0.477,0.32-0.321,0.607c0.129,0.24,0.437,0.189,0.685,0.189L249.167,225.213z"></path>
<path d="M228.55,202.991c0.084,0.985-0.278,1.743-1.111,2.258c-0.779,0.483-0.494,0.67,0.155,1.011
	c2.025,1.065,2.537,2.93,2.96,5.068c0.593,2.879-0.03,5.642-0.205,8.446c-0.108,1.677-1.417,3.051-1.948,4.671
	c-0.135,0.416-0.467,0.768-0.589,1.185c-0.534,1.921-1.906,2.515-3.738,2.455c-0.316-0.019-0.632-0.006-0.945,0.037
	c-1.444,0.25-1.543,0.364-1.566,1.807c-0.018,1.2,0.041,2.404-0.03,3.602c-0.056,0.945,0.351,1.257,1.219,1.186
	c0.312-0.025,0.638,0.031,0.947-0.01c0.696-0.09,0.988,0.112,1.05,0.888c0.07,0.868-0.448,0.918-1.013,1.015
	c-1.782,0.312-3.567,0.544-5.385,0.467c-0.321-0.015-0.71,0.085-0.729-0.332c-0.024-0.505-0.426-1.341,0.358-1.441
	c1.923-0.246,1.794-1.462,1.672-2.863c-0.084-1.134-0.066-2.273,0.053-3.404c0.078-0.853-0.24-1.262-1.004-1.526
	c-1.54-0.536-3.062-1.126-4.586-1.702c-0.713-0.27-1.29-0.641-1.652-1.402c-0.732-1.534-1.581-3.012-2.389-4.516
	c-0.339-0.624-0.547-1.279-0.429-1.992c0.636-3.786,1.012-7.599,1.281-11.426c0.069-1.008,0.667-1.884,1.001-2.829
	c1.296-3.686,3.11-7.168,5.385-10.343c1.08-1.509,2.779-1.853,4.296-2.549c0.389-0.18,0.698,0.113,0.97,0.405
	c1.973,2.106,4.238,3.992,5.222,6.852c0.124,0.355,0.354,0.704,0.364,1.061C228.195,200.383,228.176,201.708,228.55,202.991z
	 M226.641,202.356c-0.323-1.261-0.122-2.639-0.688-3.854c-0.801-1.712-1.753-3.349-3.271-4.566c-0.431-0.345-0.731-1.09-1.288-0.99
	c-0.843,0.146-1.738,0.39-2.354,1.102c-0.163,0.19-0.277,0.423-0.425,0.624c-1.366,1.9-2.6,3.894-3.517,6.04
	c-1.11,2.604-2.398,5.16-2.539,8.078c-0.119,2.888-0.443,5.765-0.975,8.607c-0.147,0.621-0.06,1.275,0.249,1.836
	c0.654,1.152,1.257,2.336,1.813,3.539c0.374,0.808,0.935,1.255,1.786,1.527c1.621,0.516,3.252,1.053,4.779,1.791
	c1.663,0.804,3.246,0.179,4.793-0.1c1.134-0.206,1.206-1.646,1.712-2.558c0.279-0.493,0.479-1.035,0.791-1.506
	c0.836-1.26,0.96-2.678,1.154-4.128c0.312-2.329,0.399-4.603-0.122-6.924c-0.484-2.167-0.891-2.661-3.314-3.225
	c-0.486-0.112-1.023-0.022-1.503-0.156c-0.972-0.26-1.169-0.972-0.415-1.646c0.717-0.616,1.487-1.167,2.301-1.649
	C226.318,203.765,226.785,203.265,226.641,202.356z"></path>
</svg>
