<svg version="1.1" id="Ebene_1" xmlns="http://www.w3.org/2000/svg" xmlns:xlink="http://www.w3.org/1999/xlink" x="0px" y="0px"
	 width="45.876px" height="24.099px" viewBox="5.375 17.03 45.876 24.099" enable-background="new 5.375 17.03 45.876 24.099"
	 xml:space="preserve">
<title>Topo-Icons</title>
<path d="M34.718,41.126c-2.548,0.089-4.688-1.854-4.714-4.616c-0.027-2.602,1.696-4.475,4.545-4.644
	c2.797-0.16,4.901,2.477,4.831,4.555C39.282,39.103,37.355,41.108,34.718,41.126z M37.844,36.483
	c0.018-1.679-1.455-3.117-3.232-3.081c-1.73,0.035-3.115,1.331-3.151,3c-0.044,1.73,1.313,3.17,3.045,3.215c0.019,0,0.027,0,0.044,0
	C36.458,39.652,37.826,38.355,37.844,36.483z"/>
<path d="M49.323,36.234c0.018,2.602-2.185,4.937-4.75,4.829c-2.468-0.098-4.483-1.864-4.556-4.68
	c-0.062-2.564,2.131-4.59,4.422-4.67C47.007,31.626,49.307,33.792,49.323,36.234z M44.725,33.277
	c-1.74-0.009-3.275,1.438-3.25,3.063c0.027,1.624,1.545,3.215,3.144,3.259c1.581,0.045,3.276-1.66,3.268-3.285
	C47.876,34.77,46.341,33.287,44.725,33.277z"/>
<g>
	<path d="M30.43,25.979c-0.143-0.099-0.213-0.213-0.213-0.382c0-0.195,0.168-0.392,0.408-0.392c0.098,0,0.213,0.044,0.293,0.099
		c0.63,0.417,1.518,0.844,2.539,0.844c1.527,0,2.468-0.782,2.468-1.954c0-0.95-0.532-1.625-2.291-1.855l-0.452-0.053
		c-1.865-0.24-2.734-1.136-2.734-2.521c0-1.651,1.181-2.682,2.992-2.682c1.013,0,1.865,0.267,2.459,0.63
		c0.188,0.115,0.268,0.249,0.268,0.392c0,0.194-0.15,0.382-0.382,0.382c-0.099,0-0.195-0.044-0.284-0.08
		c-0.648-0.355-1.323-0.559-2.087-0.559c-1.386,0-2.157,0.771-2.157,1.854c0,0.985,0.604,1.616,2.246,1.82l0.436,0.053
		c1.891,0.24,2.787,1.137,2.787,2.566c0,1.615-1.154,2.762-3.365,2.762C32.18,26.912,31.131,26.477,30.43,25.979z"/>
	<path d="M38.855,23.467v-5.859c0-0.285,0.168-0.437,0.408-0.437c0.223,0,0.391,0.151,0.391,0.437v5.877
		c0,1.793,0.914,2.664,2.425,2.664c1.526,0,2.44-0.87,2.44-2.664v-5.877c0-0.285,0.168-0.437,0.392-0.437
		c0.239,0,0.407,0.151,0.407,0.437v5.859c0,2.326-1.26,3.437-3.239,3.437C40.126,26.912,38.855,25.802,38.855,23.467z"/>
	<path d="M47.583,26.504l3.021-9.208c0.053-0.187,0.168-0.266,0.311-0.266c0.186,0,0.337,0.115,0.337,0.311
		c0,0.044-0.019,0.115-0.026,0.151l-3.019,9.207c-0.054,0.188-0.169,0.267-0.312,0.267c-0.187,0-0.338-0.114-0.338-0.311
		C47.557,26.61,47.574,26.539,47.583,26.504z"/>
</g>
</svg>
