<svg version="1.1" id="Ebene_1" xmlns="http://www.w3.org/2000/svg" xmlns:xlink="http://www.w3.org/1999/xlink" x="0px" y="0px"
	 width="633.473px" height="13.76px" viewBox="167.129 268.03 633.473 13.76" enable-background="new 167.129 268.03 633.473 13.76"
	 xml:space="preserve">
<title>Topo-Icons</title>
<path d="M680.438,268.1c22.694,0,45.389-0.07,68.082,0c6.79,0,7.561,1.4,7.322,7.826c-0.14,3.766-1.819,5.432-5.334,5.6
	c-2.226,0.127-4.452,0.141-6.691,0.141H617.718c-2.24,0-4.466,0-6.691-0.098c-4.116,0-5.824-2.017-5.853-6.272
	c0-4.466,1.148-7.196,6.076-7.196c13.398,0,26.782,0,40.18-0.07L680.438,268.1z"/>
<path d="M462.528,281.736c-21.589,0-43.181,0-64.778,0c-4.354,0-8.204,0-8.106-6.174c0-4.648,1.4-6.86,6.398-6.58
	c22.904,1.274,45.808-1.176,68.754,0.14c12.11,0.7,24.332-0.602,36.498-0.63c8.484,0,16.912,0.812,25.466-0.196
	c6.566-0.77,7.7,1.246,7.714,7.616c0,4.396-1.89,5.88-6.048,5.838c-10.43-0.126-20.846,0-31.275,0L462.528,281.736z"/>
<path d="M240.6,281.736c-21.98,0-43.974-0.084-65.954,0c-4.788,0-7.84-0.658-7.49-6.608c0.238-4.2,1.218-5.992,5.74-5.922
	c14.154,0.224,28.308,0,42.462,0c30.94,0,61.875,0,92.806,0c3.066,0,6.58-1.134,7.154,4.284c0.714,6.888,0.518,7.994-6.51,8.035
	C286.128,281.82,263.392,281.736,240.6,281.736z"/>
<path d="M793.432,281.723c-8.75,0-10.191-1.009-10.122-7c0-4.9,2.339-6.524,9.059-6.398s7.952,1.4,8.218,7.224
	C800.866,281.68,797.24,282.002,793.432,281.723z"/>
<path d="M353.426,269.262c4.354,0,5.698,2.8,5.362,6.51c-0.392,4.284-2.73,6.482-7.364,5.921c-4.634-0.56-6.216-2.799-5.474-8.609
	C346.384,269.682,348.4,268.646,353.426,269.262z"/>
<path d="M579.008,275.198c0.756,5.6-2.072,6.594-6.552,6.565c-5.824,0-5.082-3.948-5.236-7.672c-0.153-4.34,1.61-5.6,6.021-5.516
	C578.49,268.688,579.736,271.068,579.008,275.198z"/>
</svg>
