<svg version="1.1" id="Ebene_1" xmlns="http://www.w3.org/2000/svg" xmlns:xlink="http://www.w3.org/1999/xlink" x="0px" y="0px"
	 width="611.228px" height="22.018px" viewBox="177.703 308 611.228 22.018" enable-background="new 177.703 308 611.228 22.018"
	 xml:space="preserve">
<title>Topo-Icons</title>
<path d="M710.454,308c22.988,0,45.98,0,68.978,0c9.269,0,9.269,0.084,9.45,8.932c0.21,10.626,0.21,10.542-10.164,11.061
	c-44.939,2.296-89.908,1.735-134.862,1.764c-3.724,0-8.68,1.4-10.668-2.282c-2.617-4.941-1.666-10.905-0.686-16.31
	c0.729-4.004,4.732-2.8,7.49-2.8c15.806-0.112,31.598,0,47.404,0h23.058V308z"/>
<path d="M253.998,329.826c-22.624,0-45.234,0-67.844,0c-2.8,0-6.118,0.868-7.826-2.576c-1.4-2.898-0.252-15.61,1.484-17.22
	c1.584-1.517,3.849-2.091,5.964-1.513c14.14,3.696,28.42,0.196,42.56,0.225c31.458,0,63-0.196,94.416-0.309
	c7.434,0,8.4,2.381,8.736,13.244c0.21,6.469-2.716,8.232-8.4,8.204C300.072,329.77,277,329.813,253.998,329.826z"/>
<path d="M484.298,308.322c21.309,0,42.603,0,63.91,0c3.15,0,7-1.4,9.156,2.464c1.26,2.198,0.854,16.38-0.574,17.528
	c-2.548,2.044-5.684,1.399-8.624,1.399c-24.267,0-48.533,0-72.8,0h-54.992c-4.2,0-8.33,0.561-10.584-4.746
	c-2.254-5.306,0.336-9.996,1.4-14.658c0.741-3.332,5.124-2.044,7.951-2.058C440.8,308.28,462.57,308.322,484.298,308.322z"/>
</svg>
